<svg height="512" viewBox="0 0 60 60" width="512" xmlns="http://www.w3.org/2000/svg"><g id="Page-1" fill="none" fill-rule="evenodd"><g id="014---Dental-Health" fill="rgb(0,0,0)" fill-rule="nonzero" transform="translate(-1)"><path id="Shape" d="m14.083 33.4c-.7196897 1.4261142-1.0908488 3.002598-1.083 4.6 0 4.806 1.876 6.312 5 6.784v8.216c.0010064.127329.0264679.2532787.075.371l.006.013v.01c1.045 2.565 5.458 6.606 12.919 6.606 5.945 0 10.053-2.6 11.943-5h1.057c1.2667854-.0052514 2.3937454-.8056491 2.816-2h3.184c0 1.1045695.8954305 2 2 2h6c1.6568542 0 3-1.3431458 3-3s-1.3431458-3-3-3h-6c-1.1045695 0-2 .8954305-2 2h-3.184c-.4222546-1.1943509-1.5492146-1.9947486-2.816-2v-4.216c3.124-.472 5-1.978 5-6.784.0075078-1.5937012-.3622336-3.1665585-1.079-4.59 2.6651955-3.4419156 4.3509277-7.5399829 4.879-11.861.026-.184.042-.367.063-.55 1.424167.6381312 2.9054078 1.1403602 4.424 1.5.2292362.0552169.4642075.0830778.7.083.7268703-.0001501 1.429515-.2613352 1.98-.736.7395502-.6378432 1.1192197-1.5978542 1.016-2.569l-1.264-9.911c-.3123275-3.6130615-3.3444998-6.38207732-6.971-6.366h-8.748c-.5651391-.00053029-1.1296979.03621614-1.69.11-6.9698618-4.14672979-15.6501382-4.14672979-22.62 0-.5603021-.07378386-1.1248609-.11053029-1.69-.11h-8.748c-3.61414977-.02037563-6.64179957 2.73045303-6.967 6.33l-1.273 9.987c-.09268571.9600441.28787195 1.9050956 1.02 2.533.55025442.4750549 1.25304955.7362959 1.98.736.23579255.0000778.47076383-.0277831.7-.083 1.52181097-.359898 3.00610764-.8631458 4.433-1.503.4629995 4.5115845 2.172828 8.8052 4.938 12.4zm37.917 17.6h6c.5522847 0 1 .4477153 1 1s-.4477153 1-1 1h-6zm-26-1c.5522847 0 1-.4477153 1-1h3v1c0 .5522847.4477153 1 1 1s1-.4477153 1-1v-1h3c0 .5522847.4477153 1 1 1s1-.4477153 1-1h2.17c.2682872.0003068.525199.1084043.713.3l.318.318c-.7525923.5609982-1.1974623 1.4433299-1.201 2.382h-19v-.586l2.117-2.114c.187801-.1915957.4447128-.2996932.713-.3h2.17c0 .5522847.4477153 1 1 1zm5 8c-5.255 0-8.611-2.2-10.172-4h18.952c.2287787.2535558.4993722.4659717.8.628-2.6496683 2.2990686-6.0744483 3.5045339-9.58 3.372zm14-6c0 .5522847-.4477153 1-1 1h-2c-.5522847 0-1-.4477153-1-1s.4477153-1 1-1h2c.5522847 0 1 .4477153 1 1zm-3-3.414-.7-.7c-.5627044-.5686536-1.3300001-.8878198-2.13-.886h-2.17c0-.5522847-.4477153-1-1-1s-1 .4477153-1 1h-3v-1c0-.5522847-.4477153-1-1-1s-1 .4477153-1 1v1h-3c0-.5522847-.4477153-1-1-1s-1 .4477153-1 1h-2.17c-.7985259-.0018092-1.5645304.3161889-2.127.883l-.7.7v-3.624c.927.041 1.928.041 2.997.041 4.386 0 6.844-1.523 8-2.545 1.156 1.022 3.614 2.545 8 2.545 1.069 0 2.07 0 3-.041zm-3-5.586c-4.49 0-6.456-1.751-7-2.353v-3.647c0-.5522847-.4477153-1-1-1s-1 .4477153-1 1v3.645c-.553.612-2.521 2.355-7 2.355-6.341 0-8-.2-8-5 0-5.789 5.292-8.677 10.161-10.111.628 2.535 3.06 5.111 5.839 5.111s5.211-2.576 5.839-5.111c4.869 1.434 10.161 4.322 10.161 10.111 0 4.8-1.659 5-8 5zm-12-16.333c0-.583 0-1.667 4-1.667s4 1.084 4 1.667c0 1.671-1.831 4.333-4 4.333s-4-2.662-4-4.333zm-8.964-17.632c-.5323648-.14550446-1.081959.16778213-1.228.7-1.987 7.289-8.721 9.91-12.558 10.823-.32043339.0789491-.65923839-.0031402-.908-.22-.2340374-.1976222-.3608531-.4942671-.342-.8l1.273-9.991c.22282236-2.5807546 2.38867037-4.55868408 4.979-4.547h8.748c2.414 0 3.177.6 3.25.661.3583496.39810144.9667423.44315582 1.3798239.10218254.4130817-.34097327.4841475-.94687857.1611761-1.37418254-.1336485-.15972429-.2891843-.29977383-.462-.416 5.4813661-2.63070836 11.8606339-2.63070836 17.342 0-.1728157.11622617-.3283515.25627571-.462.416-.3450341.43956164-.2757483 1.07423755.156 1.429.2017012.16645754.4621716.24422167.7221172.21558999.2599455-.02863169.4972464-.1612228.6578828-.36758999.006-.007.721-.666 3.255-.666h8.748c2.6027279-.00743168 4.7731208 1.98873743 4.983 4.583l1.269 9.917c.0310173.3183597-.095125.6318494-.338.84-.2486814.2170148-.587567.2991236-.908.22-3.837-.913-10.571-3.534-12.558-10.821-.1452509-.53295478-.6950452-.84725089-1.228-.702s-.8472509.69504522-.702 1.228c1.1348235 4.1470088 3.8992416 7.6584402 7.664 9.735-.028.422-.05.841-.113 1.287-.45289 3.7287884-1.8439055 7.2818472-4.043 10.327-2.009-2.548-5.348-4.522-9.87-5.78-.618-2.825-4.399-2.834-5.904-2.834s-5.286.009-5.9 2.836c-4.517 1.256-7.853 3.227-9.863 5.771-2.4436036-3.4051883-3.8875182-7.4252212-4.169-11.607 3.767941-2.0766533 6.5347471-5.5901724 7.67-9.74.1434506-.53200119-.170473-1.0798023-.702-1.225z"/><circle id="Oval" cx="18" cy="38" r="1"/><circle id="Oval" cx="22" cy="40" r="1"/><circle id="Oval" cx="22" cy="36" r="1"/><circle id="Oval" cx="44" cy="38" r="1"/><circle id="Oval" cx="40" cy="40" r="1"/><circle id="Oval" cx="40" cy="36" r="1"/><path id="Shape" d="m18 19c0 .5522847.4477153 1 1 1 .7928085-.0173285 1.5785953.1518863 2.294.494-2.2918775.1019519-4.4497068 1.1089389-6 2.8-.2599566.2510745-.3642126.6228779-.2726972.9725073.0915155.3496295.3645604.6226744.7141899.7141899.3496294.0915154.7214328-.0127406.9725073-.2726972 3.411-3.411 6.713-1.876 6.846-1.812.3621478.1836534.7993954.1300854 1.1064989-.1355591s.4230843-.6906192.2935011-1.0754409c-.054-.152-1.287-3.685-5.954-3.685-.5522847 0-1 .4477153-1 1z"/><path id="Shape" d="m38.447 22.9c.032-.018 3.395-1.639 6.846 1.812.3923789.3789722 1.0160848.3735524 1.4018186-.0121814s.3911536-1.0094397.0121814-1.4018186c-1.5514795-1.6928583-3.7119059-2.70005-6.006-2.8.7167793-.3436911 1.5042476-.5142693 2.299-.498.5522847 0 1-.4477153 1-1s-.4477153-1-1-1c-4.667 0-5.9 3.533-5.949 3.684-.1295832.3848217-.0136024.8097964.2935011 1.0754409s.7443511.3192125 1.1064989.1355591z"/></g></g></svg>