<?xml version="1.0" encoding="UTF-8"?>
<svg xmlns="http://www.w3.org/2000/svg" id="Icons" viewBox="0 0 60 60" width="512" height="512"><path d="M8.123,9.229A3.087,3.087,0,0,0,9.494,8.9l2.852,2.853-.083.083a2,2,0,0,0,0,2.823L13.8,16.2A4.969,4.969,0,0,0,12,20a5.028,5.028,0,0,0,.11,1.033A20.865,20.865,0,0,0,9,32,21.09,21.09,0,0,0,25.978,52.59L25.762,54H21a3,3,0,0,0-3,3,3.04,3.04,0,0,0,3,3H39a3,3,0,0,0,3-3,3.04,3.04,0,0,0-3-3H33V52.78A20.879,20.879,0,0,0,47.23,44H52a3,3,0,0,0,0-6H34a3,3,0,0,0,0,6h3.2a13.833,13.833,0,0,1-5.218,1.845,3.133,3.133,0,0,0-4.234-.043,13.979,13.979,0,0,1-9.811-20.9,4.971,4.971,0,0,0,2.867-1.7l5.67,5.669a1.988,1.988,0,0,0,1.417.586,1.942,1.942,0,0,0,.573-.094l2.021,2.03a2.067,2.067,0,0,0,2.917,0l3-3a2.068,2.068,0,0,0,0-2.919l-2.027-2.019a1.952,1.952,0,0,0-.492-1.989L19.667,7.253a2.007,2.007,0,0,0-2.834,0l-.083.083L13.9,4.486A3.1,3.1,0,0,0,11.118,0h0a3.093,3.093,0,0,0-2.2.908l-3,3a3.119,3.119,0,0,0,2.2,5.325ZM39,56a1.04,1.04,0,0,1,1,1,1,1,0,0,1-1,1H21a1.053,1.053,0,0,1-1-1,1,1,0,0,1,1-1H39ZM33,41a1,1,0,0,1,1-1H52a1,1,0,0,1,0,2H34A1,1,0,0,1,33,41Zm11.733,3A18.878,18.878,0,0,1,33,50.763V48.15a3.166,3.166,0,0,0-.043-.428A15.829,15.829,0,0,0,40.568,44ZM29.85,47A1.151,1.151,0,0,1,31,48.15V54H27.785l.923-6.019A1.149,1.149,0,0,1,29.85,47Zm-3.113.654a.227.227,0,0,1-.006.025l-.45,2.934A19.079,19.079,0,0,1,11,32a18.878,18.878,0,0,1,2.18-8.813,4.974,4.974,0,0,0,2.532,1.624A15.979,15.979,0,0,0,26.737,47.654ZM17,23a3,3,0,1,1,3-3A3,3,0,0,1,17,23Zm14.9,6.985-1.846-1.854,3.067-3.067,1.863,1.922ZM18.252,8.667,32.463,22.882c-.016.017-.047.053-.074.085l-4.5,4.5-6.1-6.1A4.916,4.916,0,0,0,22,20a5.006,5.006,0,0,0-5-5,4.951,4.951,0,0,0-1.362.212l-1.96-1.965Zm-4.493,1.667L11.033,7.608l1.581-1.581,2.724,2.724ZM7.33,5.322l3.008-3.009A1.088,1.088,0,0,1,11.117,2h0a1.094,1.094,0,0,1,.787.322,1.123,1.123,0,0,1,0,1.586L8.915,6.9a1.144,1.144,0,0,1-1.585,0h0A1.109,1.109,0,0,1,7,6.1,1.1,1.1,0,0,1,7.33,5.322Z"/></svg>
