<svg id="Capa_1" enable-background="new 0 0 512.531 512.531" height="512" viewBox="0 0 512.531 512.531" width="512" xmlns="http://www.w3.org/2000/svg"><g><path d="m438.516 114.932c10.924 0 21.195-4.255 28.92-11.979 15.946-15.946 15.946-41.894 0-57.84-7.725-7.725-17.996-11.979-28.92-11.979-10.925 0-21.195 4.255-28.92 11.979-15.946 15.946-15.946 41.893 0 57.84 7.725 7.724 17.996 11.979 28.92 11.979zm-17.937-58.837c4.791-4.791 11.162-7.43 17.938-7.43s13.146 2.639 17.938 7.43c9.891 9.891 9.891 25.984 0 35.875-4.792 4.791-11.162 7.43-17.938 7.43s-13.146-2.639-17.938-7.43c-9.891-9.891-9.891-25.985 0-35.875z"/><path d="m358.317 258.929.366.366c3.031 3.031 7.061 4.701 11.349 4.701 4.287 0 8.317-1.67 11.348-4.701l11.715-11.714c3.031-3.032 4.7-7.062 4.7-11.349s-1.669-8.318-4.701-11.349l-35.509-35.509 48.678-48.678c9.93 4.814 20.893 7.368 32.253 7.368 19.775 0 38.366-7.701 52.349-21.684 28.865-28.865 28.865-75.832 0-104.697-13.983-13.982-32.574-21.683-52.349-21.683s-38.366 7.701-52.349 21.684c-22.838 22.839-27.588 57.002-14.286 84.573l-12.387 12.387c-3.033 3.033-3.033 7.949 0 10.983 1.517 1.517 3.504 2.274 5.491 2.274s3.975-.758 5.491-2.274l9.851-9.851c1.799 2.286 3.733 4.499 5.84 6.606 2.097 2.097 4.31 4.035 6.603 5.844l-46.167 46.167-12.447-12.447 15.033-15.032c3.033-3.033 3.033-7.949 0-10.982s-7.949-3.033-10.983 0l-15.033 15.033-35.509-35.509c-6.257-6.258-16.438-6.256-22.696 0l-11.714 11.715c-3.032 3.03-4.701 7.061-4.701 11.349 0 4.287 1.669 8.317 4.701 11.348l.366.366-160.212 160.208c-9.487 9.487-9.487 24.924 0 34.411l6.223 6.223-12.081 12.081c-6.256 6.258-6.256 16.44.001 22.697l12.08 12.08-97.34 97.34c-3.033 3.033-3.033 7.949 0 10.982 1.517 1.517 3.504 2.274 5.491 2.274s3.975-.758 5.491-2.274l97.34-97.34 12.08 12.08c3.031 3.031 7.062 4.701 11.349 4.701s8.318-1.67 11.349-4.701l12.081-12.081 6.223 6.223c4.595 4.596 10.706 7.127 17.206 7.127 6.499 0 12.61-2.531 17.205-7.127zm38.833-226.263c11.049-11.05 25.74-17.135 41.367-17.135 15.626 0 30.317 6.085 41.366 17.135 22.81 22.81 22.81 59.923 0 82.732-11.049 11.05-25.74 17.135-41.366 17.135s-30.317-6.085-41.367-17.135c-22.809-22.809-22.809-59.922 0-82.732zm-132.914 109.485 11.714-11.715c.101-.101.234-.151.367-.151.132 0 .265.051.366.151l105.43 105.43c.038.038.151.151.151.366s-.115.329-.152.366l-11.715 11.714c-.038.038-.151.152-.365.152s-.329-.114-.366-.152l-5.857-5.857-99.573-99.572c-.038-.038-.151-.151-.151-.365-.001-.215.113-.329.151-.367zm-129.828 271.864c-.037.038-.151.152-.366.152-.214 0-.328-.114-.366-.152l-35.143-35.143c-.202-.202-.202-.53-.001-.732l12.081-12.08 35.875 35.875zm52.716-5.858c-1.662 1.662-3.872 2.578-6.223 2.578s-4.561-.916-6.223-2.578l-70.287-70.286c-3.432-3.432-3.432-9.015 0-12.446l19.647-19.647 6.232 6.232c1.517 1.517 3.504 2.275 5.491 2.275s3.975-.758 5.491-2.275c3.033-3.033 3.033-7.95 0-10.982l-6.232-6.232 12.438-12.438 12.08 12.081c1.517 1.517 3.503 2.274 5.491 2.274 1.987 0 3.975-.758 5.491-2.274 3.033-3.032 3.033-7.949 0-10.983l-12.08-12.081 12.447-12.447 6.223 6.224c1.517 1.517 3.503 2.274 5.491 2.274 1.987 0 3.975-.758 5.491-2.274 3.033-3.032 3.033-7.949 0-10.982l-6.223-6.224 12.446-12.446 21.43 21.431c1.517 1.517 3.503 2.275 5.491 2.275 1.987 0 3.975-.758 5.491-2.275 3.033-3.032 3.033-7.949 0-10.982l-21.43-21.431 12.446-12.446 12.081 12.08c1.517 1.517 3.504 2.274 5.491 2.274s3.975-.758 5.491-2.274c3.033-3.033 3.033-7.95 0-10.982l-12.081-12.08 12.446-12.446 6.223 6.224c1.517 1.517 3.503 2.274 5.491 2.274 1.987 0 3.975-.758 5.491-2.274 3.033-3.032 3.033-7.949 0-10.982l-6.223-6.224 12.446-12.446 82.733 82.732-59.304 59.304-40.028-40.032c-3.032-3.032-7.949-3.032-10.982 0s-3.033 7.949 0 10.982l40.03 40.031z"/><path d="m381.051 322.532c0 13.417 10.915 24.332 24.332 24.332s24.332-10.915 24.332-24.332-10.915-24.332-24.332-24.332-24.332 10.915-24.332 24.332zm33.133 0c0 4.853-3.948 8.801-8.801 8.801s-8.801-3.948-8.801-8.801 3.948-8.801 8.801-8.801 8.801 3.949 8.801 8.801z"/><path d="m471.65 331.333c-13.417 0-24.332 10.916-24.332 24.333s10.915 24.332 24.332 24.332 24.332-10.915 24.332-24.332-10.915-24.333-24.332-24.333zm0 33.134c-4.853 0-8.801-3.948-8.801-8.801s3.948-8.802 8.801-8.802 8.801 3.948 8.801 8.802c-.001 4.852-3.949 8.801-8.801 8.801z"/><path d="m363.448 355.666c0-13.417-10.915-24.333-24.332-24.333s-24.332 10.916-24.332 24.333 10.915 24.332 24.332 24.332 24.332-10.915 24.332-24.332zm-24.332 8.801c-4.853 0-8.801-3.948-8.801-8.801s3.948-8.802 8.801-8.802 8.801 3.948 8.801 8.802c0 4.852-3.948 8.801-8.801 8.801z"/><path d="m449.906 411.993c-5.816-7.245-10.688-15.501-14.478-24.538l-.785-1.871c-5.47-13.039-16.638-21.117-29.176-21.117-.05 0-.102 0-.152 0-12.634.066-23.822 8.307-29.198 21.508 0 0 0 .001-.001.001l-.61 1.501c-4.22 10.361-9.819 19.677-16.64 27.687l-5.198 6.102c-4.585 5.384-6.607 13.015-5.408 20.413 1.135 7.005 4.962 12.944 10.499 16.294 10.713 6.48 23.504 6.48 34.217 0l3.09-1.869c5.764-3.485 12.375-3.487 18.139 0l3.09 1.869c5.357 3.24 11.233 4.86 17.108 4.86 5.876 0 11.752-1.62 17.108-4.86l.495-.3c5.422-3.279 9.226-9.081 10.436-15.918 1.304-7.366-.494-14.763-4.933-20.291zm-2.758 27.054c-.423 2.392-1.612 4.388-3.181 5.336l-.496.3c-5.764 3.485-12.375 3.487-18.139 0l-3.09-1.869c-10.713-6.48-23.504-6.48-34.217 0l-3.09 1.869c-5.764 3.485-12.375 3.487-18.139 0-1.609-.973-2.808-3.025-3.206-5.489-.473-2.916.256-5.927 1.9-7.858l5.198-6.102c7.896-9.271 14.356-20.004 19.201-31.9l.611-1.502c3.005-7.377 8.572-11.8 14.894-11.833h.071c6.257 0 11.807 4.329 14.853 11.593l.785 1.871c4.351 10.373 9.966 19.88 16.689 28.254l7.603 9.47c1.615 2.006 2.269 4.946 1.753 7.86z"/></g></svg>