<?xml version="1.0" encoding="UTF-8"?>
<svg xmlns="http://www.w3.org/2000/svg" xmlns:xlink="http://www.w3.org/1999/xlink" width="150pt" height="150pt" viewBox="0 0 150 150" version="1.1">
<g id="surface1">
<path style=" stroke:none;fill-rule:nonzero;fill:rgb(1.960784%,1.568627%,0.784314%);fill-opacity:1;" d="M 143.507812 52.273438 L 134.109375 52.273438 C 132.527344 37.558594 124.113281 21.394531 109.667969 21.394531 L 38.023438 21.394531 C 30.867188 21.394531 24.34375 25.632812 19.65625 33.324219 C 16.425781 38.628906 14.335938 45.207031 13.578125 52.273438 L 6.492188 52.273438 C 2.914062 52.273438 0 55.183594 0 58.765625 L 0 66.320312 C 0 69.902344 2.914062 72.8125 6.492188 72.8125 L 8.074219 72.8125 C 6.6875 75.785156 5.910156 79.09375 5.910156 82.582031 L 5.910156 101.214844 C 4.359375 102.246094 3.335938 104.007812 3.335938 106.003906 L 3.335938 109.996094 C 3.335938 113.019531 5.683594 115.5 8.652344 115.71875 L 8.652344 122.058594 C 8.652344 125.667969 11.589844 128.605469 15.199219 128.605469 L 34.445312 128.605469 C 38.054688 128.605469 40.992188 125.667969 40.992188 122.058594 L 40.992188 115.742188 L 56.160156 115.742188 C 57.171875 116.628906 58.496094 117.175781 59.945312 117.175781 L 87.742188 117.175781 C 89.195312 117.175781 90.515625 116.628906 91.527344 115.742188 L 106.695312 115.742188 L 106.695312 122.058594 C 106.695312 125.667969 109.632812 128.605469 113.242188 128.605469 L 132.488281 128.605469 C 136.101562 128.605469 139.035156 125.667969 139.035156 122.058594 L 139.035156 115.71875 C 142.003906 115.496094 144.351562 113.019531 144.351562 109.996094 L 144.351562 106.003906 C 144.351562 104.007812 143.328125 102.246094 141.78125 101.214844 L 141.78125 93.867188 C 141.78125 92.652344 140.796875 91.667969 139.582031 91.667969 C 138.367188 91.667969 137.386719 92.652344 137.386719 93.867188 L 137.386719 100.257812 L 91.527344 100.257812 C 90.484375 99.335938 89.121094 98.824219 87.742188 98.824219 L 59.945312 98.824219 C 58.546875 98.824219 57.1875 99.351562 56.160156 100.257812 L 10.304688 100.257812 L 10.304688 82.582031 C 10.304688 72.046875 18.980469 63.78125 29.105469 63.78125 L 38.46875 63.78125 L 47.121094 77.894531 C 49.539062 81.835938 53.910156 84.285156 58.535156 84.285156 L 89.152344 84.285156 C 93.777344 84.285156 98.152344 81.835938 100.570312 77.894531 L 109.21875 63.777344 L 118.582031 63.777344 C 128.691406 63.777344 137.386719 72.027344 137.386719 82.582031 L 137.386719 83.613281 C 137.386719 84.824219 138.371094 85.808594 139.582031 85.808594 C 140.796875 85.808594 141.78125 84.824219 141.78125 83.613281 C 141.722656 83.039062 142.191406 78.335938 139.617188 72.8125 L 143.507812 72.8125 C 147.085938 72.8125 150 69.902344 150 66.320312 L 150 58.765625 C 150 55.183594 147.085938 52.273438 143.507812 52.273438 Z M 6.492188 68.421875 C 5.335938 68.421875 4.394531 67.480469 4.394531 66.320312 L 4.394531 58.765625 C 4.394531 57.605469 5.335938 56.667969 6.492188 56.667969 L 13.277344 56.667969 C 13.261719 57.203125 13.25 57.738281 13.25 58.277344 L 13.25 65.671875 C 12.347656 66.519531 11.511719 67.4375 10.753906 68.421875 Z M 36.597656 122.058594 C 36.597656 123.246094 35.632812 124.210938 34.445312 124.210938 L 15.199219 124.210938 C 14.011719 124.210938 13.046875 123.246094 13.046875 122.058594 L 13.046875 115.742188 L 36.597656 115.742188 Z M 134.640625 122.058594 C 134.640625 123.246094 133.675781 124.210938 132.488281 124.210938 L 113.242188 124.210938 C 112.054688 124.210938 111.089844 123.246094 111.089844 122.058594 L 111.089844 115.742188 L 134.640625 115.742188 Z M 138.605469 104.652344 C 138.683594 104.652344 138.757812 104.660156 138.832031 104.675781 C 138.863281 104.679688 138.894531 104.6875 138.925781 104.695312 C 139.507812 104.84375 139.957031 105.378906 139.957031 106.003906 L 139.957031 109.996094 C 139.957031 110.726562 139.339844 111.347656 138.605469 111.347656 C 133.785156 111.347656 98.246094 111.347656 93.492188 111.347656 L 93.492188 104.652344 Z M 87.746094 103.21875 C 88.480469 103.21875 89.09375 103.847656 89.09375 104.570312 L 89.09375 111.429688 C 89.09375 112.117188 88.507812 112.78125 87.746094 112.78125 L 59.945312 112.78125 C 59.179688 112.78125 58.59375 112.117188 58.59375 111.429688 L 58.59375 104.570312 C 58.59375 103.847656 59.207031 103.21875 59.945312 103.21875 Z M 54.199219 104.652344 L 54.199219 111.347656 C 49.570312 111.347656 13.332031 111.347656 9.082031 111.347656 C 8.347656 111.347656 7.730469 110.726562 7.730469 109.996094 L 7.730469 106.003906 C 7.730469 105.378906 8.179688 104.84375 8.761719 104.695312 C 8.792969 104.6875 8.824219 104.679688 8.855469 104.675781 C 8.929688 104.660156 9.003906 104.652344 9.082031 104.652344 Z M 25.039062 59.746094 L 25.039062 58.277344 C 25.039062 51.101562 26.703125 44.417969 29.722656 39.457031 C 32.1875 35.410156 35.136719 33.183594 38.023438 33.183594 L 69.875 33.183594 C 71.085938 33.183594 72.070312 32.199219 72.070312 30.984375 C 72.070312 29.773438 71.085938 28.789062 69.875 28.789062 L 38.023438 28.789062 C 33.542969 28.789062 29.265625 31.765625 25.972656 37.171875 C 22.535156 42.808594 20.644531 50.304688 20.644531 58.277344 L 20.644531 60.988281 C 19.605469 61.398438 18.605469 61.878906 17.644531 62.425781 L 17.644531 58.277344 C 17.644531 50.546875 19.386719 42.21875 23.410156 35.613281 C 27.269531 29.277344 32.457031 25.789062 38.023438 25.789062 L 109.667969 25.789062 C 115.230469 25.789062 120.421875 29.277344 124.28125 35.609375 C 128.289062 42.195312 130.042969 50.476562 130.042969 58.277344 L 130.042969 62.425781 C 129.082031 61.878906 128.082031 61.398438 127.042969 60.988281 L 127.042969 58.277344 C 127.042969 50.304688 125.152344 42.808594 121.71875 37.171875 C 118.425781 31.765625 114.144531 28.789062 109.667969 28.789062 L 80.128906 28.789062 C 78.914062 28.789062 77.929688 29.773438 77.929688 30.984375 C 77.929688 32.199219 78.914062 33.183594 80.128906 33.183594 L 109.667969 33.183594 C 112.554688 33.183594 115.5 35.410156 117.964844 39.457031 C 120.984375 44.417969 122.648438 51.101562 122.648438 58.277344 L 122.648438 59.746094 C 121.476562 59.535156 120.089844 59.398438 118.761719 59.386719 C 118.75 49.207031 110.464844 40.925781 100.28125 40.925781 C 90.097656 40.925781 81.8125 49.207031 81.800781 59.386719 C 75.292969 59.386719 35.8125 59.386719 29.105469 59.386719 C 27.730469 59.386719 26.246094 59.527344 25.039062 59.746094 Z M 96.824219 75.597656 C 95.199219 78.246094 92.257812 79.890625 89.152344 79.890625 L 58.535156 79.890625 C 55.429688 79.890625 52.492188 78.246094 50.867188 75.597656 L 43.625 63.78125 L 104.066406 63.78125 Z M 93.492188 59.386719 C 93.503906 55.652344 96.546875 52.617188 100.28125 52.617188 C 104.019531 52.617188 107.058594 55.652344 107.070312 59.386719 Z M 111.464844 59.386719 C 111.453125 53.226562 106.441406 48.222656 100.28125 48.222656 C 94.121094 48.222656 89.109375 53.226562 89.097656 59.386719 L 86.195312 59.386719 C 86.207031 51.628906 92.523438 45.320312 100.28125 45.320312 C 108.039062 45.320312 114.355469 51.628906 114.367188 59.386719 Z M 145.605469 66.320312 C 145.605469 67.480469 144.664062 68.417969 143.507812 68.417969 L 136.9375 68.417969 C 136.175781 67.4375 135.339844 66.519531 134.4375 65.671875 L 134.4375 58.277344 C 134.4375 57.742188 134.429688 57.207031 134.414062 56.667969 L 143.507812 56.667969 C 144.664062 56.667969 145.605469 57.605469 145.605469 58.765625 Z M 145.605469 66.320312 "/>
<path style=" stroke:none;fill-rule:nonzero;fill:rgb(1.960784%,1.568627%,0.784314%);fill-opacity:1;" d="M 56.46875 88.140625 C 55.257812 88.140625 54.273438 89.125 54.273438 90.335938 C 54.273438 91.550781 55.257812 92.535156 56.46875 92.535156 L 91.21875 92.535156 C 92.433594 92.535156 93.417969 91.550781 93.417969 90.335938 C 93.417969 89.125 92.433594 88.140625 91.21875 88.140625 Z M 56.46875 88.140625 "/>
<path style=" stroke:none;fill-rule:nonzero;fill:rgb(1.960784%,1.568627%,0.784314%);fill-opacity:1;" d="M 120.660156 71.890625 C 114.726562 71.890625 109.898438 76.71875 109.898438 82.652344 C 109.898438 88.585938 114.726562 93.414062 120.660156 93.414062 C 126.59375 93.414062 131.421875 88.585938 131.421875 82.652344 C 131.421875 76.714844 126.59375 71.890625 120.660156 71.890625 Z M 120.660156 89.019531 C 117.148438 89.019531 114.292969 86.164062 114.292969 82.652344 C 114.292969 79.140625 117.148438 76.285156 120.660156 76.285156 C 124.171875 76.285156 127.027344 79.140625 127.027344 82.652344 C 127.027344 86.164062 124.171875 89.019531 120.660156 89.019531 Z M 120.660156 89.019531 "/>
<path style=" stroke:none;fill-rule:nonzero;fill:rgb(1.960784%,1.568627%,0.784314%);fill-opacity:1;" d="M 16.265625 82.652344 C 16.265625 88.585938 21.09375 93.414062 27.027344 93.414062 C 32.960938 93.414062 37.789062 88.585938 37.789062 82.652344 C 37.789062 76.714844 32.960938 71.890625 27.027344 71.890625 C 21.09375 71.890625 16.265625 76.714844 16.265625 82.652344 Z M 33.394531 82.652344 C 33.394531 86.164062 30.539062 89.019531 27.027344 89.019531 C 23.515625 89.019531 20.660156 86.164062 20.660156 82.652344 C 20.660156 79.140625 23.515625 76.285156 27.027344 76.285156 C 30.539062 76.285156 33.394531 79.140625 33.394531 82.652344 Z M 33.394531 82.652344 "/>
</g>
</svg>
