<?xml version="1.0" encoding="UTF-8"?>
<svg xmlns="http://www.w3.org/2000/svg" xmlns:xlink="http://www.w3.org/1999/xlink" width="150pt" height="150pt" viewBox="0 0 150 150" version="1.1">
<g id="surface1">
<path style=" stroke:none;fill-rule:nonzero;fill:rgb(0%,0%,0%);fill-opacity:1;" d="M 110.742188 69.972656 L 133.703125 69.972656 C 134.6875 72.457031 137.300781 73.890625 139.925781 73.390625 C 142.550781 72.890625 144.449219 70.59375 144.449219 67.921875 C 144.449219 65.25 142.550781 62.953125 139.925781 62.453125 C 137.300781 61.953125 134.6875 63.386719 133.703125 65.871094 L 110.742188 65.871094 L 110.742188 55.804688 L 125.542969 55.804688 C 126.675781 55.804688 127.59375 54.886719 127.59375 53.753906 L 127.59375 40.242188 L 133.703125 40.242188 C 134.6875 42.726562 137.300781 44.160156 139.925781 43.660156 C 142.550781 43.160156 144.449219 40.863281 144.449219 38.191406 C 144.449219 35.519531 142.550781 33.222656 139.925781 32.722656 C 137.300781 32.222656 134.6875 33.65625 133.703125 36.140625 L 125.542969 36.140625 C 124.410156 36.140625 123.492188 37.058594 123.492188 38.191406 L 123.492188 51.703125 L 110.742188 51.703125 L 110.742188 41.308594 C 110.742188 40.175781 109.824219 39.257812 108.691406 39.257812 L 98.296875 39.257812 L 98.296875 26.507812 L 111.808594 26.507812 C 112.941406 26.507812 113.859375 25.589844 113.859375 24.457031 L 113.859375 16.296875 C 116.34375 15.3125 117.777344 12.703125 117.273438 10.078125 C 116.773438 7.453125 114.480469 5.558594 111.808594 5.558594 C 109.136719 5.558594 106.84375 7.453125 106.34375 10.078125 C 105.839844 12.703125 107.273438 15.3125 109.757812 16.296875 L 109.757812 22.40625 L 96.246094 22.40625 C 95.113281 22.40625 94.195312 23.324219 94.195312 24.457031 L 94.195312 39.257812 L 84.128906 39.257812 L 84.128906 16.296875 C 86.613281 15.3125 88.046875 12.703125 87.542969 10.078125 C 87.042969 7.457031 84.75 5.558594 82.078125 5.558594 C 79.40625 5.558594 77.113281 7.457031 76.613281 10.078125 C 76.109375 12.703125 77.542969 15.3125 80.027344 16.296875 L 80.027344 39.257812 L 69.972656 39.257812 L 69.972656 16.296875 C 72.457031 15.3125 73.890625 12.699219 73.390625 10.074219 C 72.890625 7.449219 70.59375 5.550781 67.921875 5.550781 C 65.25 5.550781 62.953125 7.449219 62.453125 10.074219 C 61.953125 12.699219 63.386719 15.3125 65.871094 16.296875 L 65.871094 39.257812 L 55.804688 39.257812 L 55.804688 24.457031 C 55.804688 23.324219 54.886719 22.40625 53.753906 22.40625 L 40.242188 22.40625 L 40.242188 16.296875 C 42.726562 15.3125 44.160156 12.699219 43.660156 10.074219 C 43.160156 7.449219 40.863281 5.550781 38.191406 5.550781 C 35.519531 5.550781 33.222656 7.449219 32.722656 10.074219 C 32.222656 12.699219 33.65625 15.3125 36.140625 16.296875 L 36.140625 24.457031 C 36.140625 25.589844 37.058594 26.507812 38.191406 26.507812 L 51.703125 26.507812 L 51.703125 39.257812 L 41.308594 39.257812 C 40.175781 39.257812 39.257812 40.175781 39.257812 41.308594 L 39.257812 51.703125 L 26.507812 51.703125 L 26.507812 38.191406 C 26.507812 37.058594 25.589844 36.140625 24.457031 36.140625 L 16.296875 36.140625 C 15.3125 33.65625 12.703125 32.222656 10.078125 32.722656 C 7.453125 33.226562 5.554688 35.519531 5.554688 38.191406 C 5.554688 40.863281 7.453125 43.15625 10.078125 43.660156 C 12.703125 44.160156 15.3125 42.726562 16.296875 40.242188 L 22.40625 40.242188 L 22.40625 53.753906 C 22.40625 54.886719 23.324219 55.804688 24.457031 55.804688 L 39.257812 55.804688 L 39.257812 65.871094 L 16.296875 65.871094 C 15.3125 63.386719 12.703125 61.953125 10.078125 62.457031 C 7.457031 62.957031 5.558594 65.25 5.558594 67.921875 C 5.558594 70.59375 7.457031 72.886719 10.078125 73.386719 C 12.703125 73.890625 15.3125 72.457031 16.296875 69.972656 L 39.257812 69.972656 L 39.257812 80.027344 L 16.296875 80.027344 C 15.3125 77.542969 12.699219 76.109375 10.074219 76.609375 C 7.449219 77.109375 5.550781 79.40625 5.550781 82.078125 C 5.550781 84.75 7.449219 87.046875 10.074219 87.546875 C 12.699219 88.046875 15.3125 86.613281 16.296875 84.128906 L 39.257812 84.128906 L 39.257812 94.195312 L 24.457031 94.195312 C 23.324219 94.195312 22.40625 95.113281 22.40625 96.246094 L 22.40625 109.757812 L 16.296875 109.757812 C 15.3125 107.273438 12.699219 105.839844 10.074219 106.339844 C 7.449219 106.839844 5.550781 109.136719 5.550781 111.808594 C 5.550781 114.480469 7.449219 116.777344 10.074219 117.277344 C 12.699219 117.777344 15.3125 116.34375 16.296875 113.859375 L 24.457031 113.859375 C 25.589844 113.859375 26.507812 112.941406 26.507812 111.808594 L 26.507812 98.296875 L 39.257812 98.296875 L 39.257812 108.691406 C 39.257812 109.824219 40.175781 110.742188 41.308594 110.742188 L 51.703125 110.742188 L 51.703125 123.492188 L 38.191406 123.492188 C 37.058594 123.492188 36.140625 124.410156 36.140625 125.542969 L 36.140625 133.703125 C 33.65625 134.6875 32.222656 137.296875 32.726562 139.921875 C 33.226562 142.546875 35.519531 144.441406 38.191406 144.441406 C 40.863281 144.441406 43.15625 142.546875 43.65625 139.921875 C 44.160156 137.296875 42.726562 134.6875 40.242188 133.703125 L 40.242188 127.59375 L 53.753906 127.59375 C 54.886719 127.59375 55.804688 126.675781 55.804688 125.542969 L 55.804688 110.742188 L 65.871094 110.742188 L 65.871094 133.703125 C 63.386719 134.6875 61.953125 137.296875 62.457031 139.921875 C 62.957031 142.542969 65.25 144.441406 67.921875 144.441406 C 70.59375 144.441406 72.886719 142.542969 73.386719 139.921875 C 73.890625 137.296875 72.457031 134.6875 69.972656 133.703125 L 69.972656 110.742188 L 80.027344 110.742188 L 80.027344 133.703125 C 77.542969 134.6875 76.109375 137.300781 76.609375 139.925781 C 77.109375 142.550781 79.40625 144.449219 82.078125 144.449219 C 84.75 144.449219 87.046875 142.550781 87.546875 139.925781 C 88.046875 137.300781 86.613281 134.6875 84.128906 133.703125 L 84.128906 110.742188 L 94.195312 110.742188 L 94.195312 125.542969 C 94.195312 126.675781 95.113281 127.59375 96.246094 127.59375 L 109.757812 127.59375 L 109.757812 133.703125 C 107.273438 134.6875 105.839844 137.296875 106.339844 139.921875 C 106.84375 142.546875 109.136719 144.445312 111.808594 144.445312 C 114.480469 144.445312 116.773438 142.546875 117.277344 139.921875 C 117.777344 137.296875 116.34375 134.6875 113.859375 133.703125 L 113.859375 125.542969 C 113.859375 124.410156 112.941406 123.492188 111.808594 123.492188 L 98.296875 123.492188 L 98.296875 110.742188 L 108.691406 110.742188 C 109.824219 110.742188 110.742188 109.824219 110.742188 108.691406 L 110.742188 98.296875 L 123.492188 98.296875 L 123.492188 111.808594 C 123.492188 112.941406 124.410156 113.859375 125.542969 113.859375 L 133.703125 113.859375 C 134.6875 116.34375 137.296875 117.777344 139.921875 117.273438 C 142.546875 116.773438 144.441406 114.480469 144.441406 111.808594 C 144.441406 109.136719 142.546875 106.84375 139.921875 106.34375 C 137.296875 105.839844 134.6875 107.273438 133.703125 109.757812 L 127.59375 109.757812 L 127.59375 96.246094 C 127.59375 95.113281 126.675781 94.195312 125.542969 94.195312 L 110.742188 94.195312 L 110.742188 84.128906 L 133.703125 84.128906 C 134.6875 86.613281 137.296875 88.046875 139.921875 87.542969 C 142.542969 87.042969 144.441406 84.75 144.441406 82.078125 C 144.441406 79.40625 142.542969 77.113281 139.921875 76.613281 C 137.296875 76.109375 134.6875 77.542969 133.703125 80.027344 L 110.742188 80.027344 Z M 138.867188 66.457031 C 139.675781 66.457031 140.332031 67.113281 140.332031 67.921875 C 140.332031 68.730469 139.675781 69.386719 138.867188 69.386719 C 138.058594 69.386719 137.402344 68.730469 137.402344 67.921875 C 137.402344 67.113281 138.058594 66.457031 138.867188 66.453125 Z M 138.867188 36.726562 C 139.675781 36.726562 140.332031 37.382812 140.332031 38.191406 C 140.332031 39 139.675781 39.65625 138.867188 39.65625 C 138.058594 39.65625 137.402344 39 137.402344 38.191406 C 137.402344 37.382812 138.058594 36.726562 138.867188 36.726562 Z M 111.808594 9.667969 C 112.617188 9.667969 113.273438 10.324219 113.273438 11.132812 C 113.273438 11.941406 112.617188 12.597656 111.808594 12.597656 C 111 12.597656 110.34375 11.941406 110.34375 11.132812 C 110.347656 10.324219 111 9.667969 111.808594 9.667969 Z M 82.082031 9.667969 C 82.890625 9.667969 83.546875 10.324219 83.546875 11.132812 C 83.546875 11.941406 82.890625 12.597656 82.082031 12.597656 C 81.269531 12.597656 80.617188 11.941406 80.617188 11.132812 C 80.617188 10.324219 81.273438 9.667969 82.082031 9.667969 Z M 67.917969 9.667969 C 68.730469 9.667969 69.382812 10.324219 69.382812 11.132812 C 69.382812 11.941406 68.730469 12.597656 67.917969 12.597656 C 67.109375 12.597656 66.453125 11.941406 66.453125 11.132812 C 66.457031 10.324219 67.109375 9.667969 67.917969 9.667969 Z M 38.191406 9.667969 C 39 9.667969 39.65625 10.324219 39.65625 11.132812 C 39.65625 11.941406 39 12.597656 38.191406 12.597656 C 37.382812 12.597656 36.726562 11.941406 36.726562 11.132812 C 36.726562 10.324219 37.382812 9.667969 38.191406 9.667969 Z M 11.132812 39.65625 C 10.324219 39.65625 9.667969 39 9.667969 38.191406 C 9.667969 37.382812 10.324219 36.726562 11.132812 36.726562 C 11.941406 36.726562 12.597656 37.382812 12.597656 38.191406 C 12.597656 39 11.941406 39.65625 11.132812 39.65625 Z M 11.132812 69.382812 C 10.324219 69.382812 9.667969 68.730469 9.667969 67.917969 C 9.667969 67.109375 10.324219 66.453125 11.132812 66.453125 C 11.941406 66.453125 12.597656 67.109375 12.597656 67.917969 C 12.597656 68.726562 11.941406 69.382812 11.132812 69.382812 Z M 11.132812 83.546875 C 10.324219 83.546875 9.667969 82.890625 9.667969 82.082031 C 9.667969 81.269531 10.324219 80.617188 11.132812 80.617188 C 11.941406 80.617188 12.597656 81.269531 12.597656 82.082031 C 12.597656 82.890625 11.941406 83.542969 11.132812 83.546875 Z M 11.132812 113.273438 C 10.324219 113.273438 9.667969 112.617188 9.667969 111.808594 C 9.667969 111 10.324219 110.34375 11.132812 110.34375 C 11.941406 110.34375 12.597656 111 12.597656 111.808594 C 12.597656 112.617188 11.941406 113.273438 11.132812 113.273438 Z M 38.191406 140.332031 C 37.382812 140.332031 36.726562 139.675781 36.726562 138.867188 C 36.726562 138.058594 37.382812 137.402344 38.191406 137.402344 C 39 137.402344 39.65625 138.058594 39.65625 138.867188 C 39.652344 139.675781 39 140.332031 38.191406 140.332031 Z M 67.917969 140.332031 C 67.109375 140.332031 66.453125 139.675781 66.453125 138.867188 C 66.453125 138.058594 67.109375 137.402344 67.917969 137.402344 C 68.730469 137.402344 69.382812 138.058594 69.382812 138.867188 C 69.382812 139.675781 68.726562 140.332031 67.917969 140.332031 Z M 82.082031 140.332031 C 81.269531 140.332031 80.617188 139.675781 80.617188 138.867188 C 80.617188 138.058594 81.269531 137.402344 82.082031 137.402344 C 82.890625 137.402344 83.546875 138.058594 83.546875 138.867188 C 83.542969 139.675781 82.890625 140.332031 82.082031 140.332031 Z M 111.808594 140.332031 C 111 140.332031 110.34375 139.675781 110.34375 138.867188 C 110.34375 138.058594 111 137.402344 111.808594 137.402344 C 112.617188 137.402344 113.273438 138.058594 113.273438 138.867188 C 113.273438 139.675781 112.617188 140.332031 111.808594 140.332031 Z M 138.867188 110.34375 C 139.675781 110.34375 140.332031 111 140.332031 111.808594 C 140.332031 112.617188 139.675781 113.273438 138.867188 113.273438 C 138.058594 113.273438 137.402344 112.617188 137.402344 111.808594 C 137.402344 111 138.058594 110.34375 138.867188 110.34375 Z M 138.867188 80.617188 C 139.675781 80.617188 140.332031 81.269531 140.332031 82.082031 C 140.332031 82.890625 139.675781 83.546875 138.867188 83.546875 C 138.058594 83.546875 137.402344 82.890625 137.402344 82.082031 C 137.402344 81.273438 138.058594 80.617188 138.867188 80.617188 Z M 106.640625 106.640625 L 43.359375 106.640625 L 43.359375 43.359375 L 106.640625 43.359375 Z M 106.640625 106.640625 "/>
<path style=" stroke:none;fill-rule:nonzero;fill:rgb(0%,0%,0%);fill-opacity:1;" d="M 98.144531 49.804688 L 51.855469 49.804688 C 50.722656 49.804688 49.804688 50.722656 49.804688 51.855469 L 49.804688 98.144531 C 49.804688 99.277344 50.722656 100.195312 51.855469 100.195312 L 98.144531 100.195312 C 99.277344 100.195312 100.195312 99.277344 100.195312 98.144531 L 100.195312 51.855469 C 100.195312 50.722656 99.277344 49.804688 98.144531 49.804688 Z M 96.09375 96.09375 L 53.90625 96.09375 L 53.90625 53.90625 L 96.09375 53.90625 Z M 96.09375 96.09375 "/>
<path style=" stroke:none;fill-rule:nonzero;fill:rgb(0%,0%,0%);fill-opacity:1;" d="M 91.113281 78.027344 C 92.246094 78.027344 93.164062 77.109375 93.164062 75.976562 L 93.164062 64.402344 C 93.164062 63.269531 92.246094 62.351562 91.113281 62.351562 C 89.980469 62.351562 89.0625 63.269531 89.0625 64.402344 L 89.0625 75.976562 C 89.0625 77.109375 89.980469 78.027344 91.113281 78.027344 Z M 91.113281 78.027344 "/>
</g>
</svg>
