<?xml version="1.0" encoding="UTF-8"?>
<svg xmlns="http://www.w3.org/2000/svg" xmlns:xlink="http://www.w3.org/1999/xlink" width="150pt" height="150pt" viewBox="0 0 150 150" version="1.1">
<g id="surface1">
<path style=" stroke:none;fill-rule:nonzero;fill:rgb(0%,0%,0%);fill-opacity:1;" d="M 111.25 7.5 C 97.652344 7.53125 84.621094 12.941406 75 22.550781 C 65.378906 12.941406 52.347656 7.53125 38.75 7.5 C 17.023438 7.5 0 28.5 0 55.300781 C 0.15625 67.371094 3.082031 79.242188 8.558594 90 L 2.5 90 C 1.121094 90 0 91.121094 0 92.5 C 0 93.878906 1.121094 95 2.5 95 L 11.25 95 C 22.300781 114.015625 42.226562 132.050781 74.226562 142.378906 C 74.726562 142.539062 75.265625 142.539062 75.765625 142.378906 C 109.167969 131.597656 129.414062 112.421875 140.140625 92.5 L 147.5 92.5 C 148.878906 92.5 150 91.378906 150 90 C 150 88.621094 148.878906 87.5 147.5 87.5 L 142.644531 87.5 C 147.367188 77.414062 149.875 66.4375 150 55.300781 C 150 28.5 132.976562 7.5 111.25 7.5 Z M 137.101562 87.5 L 134.191406 87.5 L 129.824219 76.570312 C 129.449219 75.636719 128.550781 75.019531 127.546875 75 C 126.546875 74.996094 125.636719 75.578125 125.214844 76.484375 L 117.832031 93.097656 L 114.289062 82.480469 C 116.054688 81.089844 117.484375 79.3125 118.460938 77.289062 C 119.839844 74.542969 120.300781 71.425781 119.773438 68.398438 C 119.3125 65.515625 117.511719 63.019531 114.917969 61.675781 C 109.949219 59.265625 103.46875 62.359375 100.46875 68.558594 C 97.464844 74.761719 99.046875 81.765625 104.011719 84.171875 C 105.136719 84.714844 106.371094 84.992188 107.621094 84.988281 C 108.34375 84.976562 109.058594 84.882812 109.761719 84.703125 L 115.128906 100.789062 C 115.457031 101.769531 116.347656 102.445312 117.378906 102.496094 L 117.5 102.496094 C 118.488281 102.496094 119.382812 101.914062 119.785156 101.011719 L 127.378906 83.925781 L 130.175781 90.925781 C 130.554688 91.875 131.476562 92.5 132.5 92.5 L 134.417969 92.5 C 124 110.398438 105.199219 127.441406 75 137.371094 C 46.210938 127.90625 27.78125 111.976562 17.09375 95 L 20 95 C 20.949219 95 21.8125 94.464844 22.238281 93.617188 L 24.867188 88.355469 L 32.714844 106.015625 C 33.117188 106.917969 34.011719 107.5 35 107.5 C 35.074219 107.503906 35.144531 107.503906 35.21875 107.5 C 36.28125 107.40625 37.164062 106.652344 37.425781 105.617188 L 42.582031 84.976562 C 43.761719 84.957031 44.925781 84.6875 45.988281 84.179688 C 50.953125 81.773438 52.542969 74.773438 49.53125 68.570312 C 46.523438 62.367188 40.054688 59.28125 35.082031 61.683594 C 32.488281 63.03125 30.6875 65.523438 30.226562 68.40625 C 29.226562 74.609375 32.230469 80.773438 37.726562 83.8125 L 34.339844 97.359375 L 27.289062 81.496094 C 26.898438 80.605469 26.027344 80.019531 25.054688 80 C 24.085938 79.96875 23.1875 80.511719 22.761719 81.382812 L 18.453125 90 L 14.1875 90 C 8.332031 79.359375 5.175781 67.445312 5 55.300781 C 5 31.300781 19.824219 12.5 38.75 12.5 C 51.820312 12.605469 64.25 18.160156 73.054688 27.816406 C 73.527344 28.40625 74.242188 28.75 75 28.75 C 75.757812 28.75 76.472656 28.40625 76.945312 27.816406 C 85.730469 18.132812 98.175781 12.574219 111.25 12.5 C 130.175781 12.5 145 31.300781 145 55.300781 C 144.851562 66.496094 142.152344 77.507812 137.101562 87.5 Z M 104.960938 70.75 C 106.023438 68.105469 108.421875 66.238281 111.246094 65.851562 C 111.765625 65.84375 112.277344 65.957031 112.746094 66.183594 C 113.90625 66.855469 114.695312 68.027344 114.875 69.359375 C 115.183594 71.320312 114.871094 73.332031 113.972656 75.109375 C 112.199219 78.761719 108.636719 80.859375 106.203125 79.675781 C 103.765625 78.492188 103.191406 74.398438 104.960938 70.75 Z M 35.136719 69.351562 C 35.316406 68.019531 36.101562 66.847656 37.265625 66.175781 C 37.734375 65.949219 38.246094 65.835938 38.765625 65.84375 C 41.585938 66.230469 43.984375 68.101562 45.046875 70.742188 C 46.820312 74.398438 46.257812 78.492188 43.816406 79.671875 C 41.378906 80.851562 37.816406 78.761719 36.046875 75.105469 C 35.144531 73.332031 34.828125 71.316406 35.136719 69.351562 Z M 35.136719 69.351562 "/>
<path style=" stroke:none;fill-rule:nonzero;fill:rgb(0%,0%,0%);fill-opacity:1;" d="M 38.75 17.5 C 36.382812 17.496094 34.027344 17.84375 31.765625 18.535156 C 30.445312 18.941406 29.703125 20.339844 30.109375 21.660156 C 30.515625 22.980469 31.914062 23.722656 33.234375 23.316406 C 35.023438 22.769531 36.882812 22.496094 38.75 22.5 C 40.128906 22.5 41.25 21.378906 41.25 20 C 41.25 18.621094 40.128906 17.5 38.75 17.5 Z M 38.75 17.5 "/>
<path style=" stroke:none;fill-rule:nonzero;fill:rgb(0%,0%,0%);fill-opacity:1;" d="M 12.5 57.800781 C 13.878906 57.800781 15 56.683594 15 55.300781 C 15 43.824219 19.546875 32.6875 26.578125 26.933594 C 27.289062 26.375 27.636719 25.476562 27.496094 24.585938 C 27.355469 23.695312 26.746094 22.949219 25.898438 22.632812 C 25.054688 22.316406 24.105469 22.484375 23.414062 23.066406 C 15.140625 29.828125 10 42.183594 10 55.300781 C 10 56.683594 11.121094 57.800781 12.5 57.800781 Z M 12.5 57.800781 "/>
<path style=" stroke:none;fill-rule:nonzero;fill:rgb(0%,0%,0%);fill-opacity:1;" d="M 75 70 C 65.113281 70 61.699219 75.578125 58.390625 80.976562 C 56.921875 83.601562 55.136719 86.035156 53.070312 88.226562 C 47.933594 93.3125 46.199219 100.914062 48.621094 107.726562 C 50.414062 112.273438 54.886719 115.191406 59.773438 115 C 63.027344 115.050781 66.207031 114.023438 68.816406 112.078125 C 72.472656 109.308594 77.527344 109.308594 81.183594 112.078125 C 83.792969 114.023438 86.972656 115.050781 90.226562 115 C 95.113281 115.191406 99.585938 112.273438 101.378906 107.726562 C 103.800781 100.914062 102.066406 93.316406 96.929688 88.226562 C 94.863281 86.039062 93.078125 83.601562 91.609375 80.976562 C 88.300781 75.578125 84.886719 70 75 70 Z M 87.34375 83.585938 C 89.019531 86.558594 91.058594 89.308594 93.410156 91.773438 C 97.066406 95.464844 98.355469 100.886719 96.75 105.824219 C 95.730469 108.5 93.082031 110.191406 90.226562 110 C 87.949219 110.050781 85.722656 109.308594 83.929688 107.898438 C 78.601562 104.035156 71.398438 104.035156 66.070312 107.898438 C 64.277344 109.308594 62.050781 110.050781 59.773438 110 C 56.917969 110.195312 54.269531 108.5 53.246094 105.824219 C 51.644531 100.886719 52.933594 95.460938 56.589844 91.773438 C 58.941406 89.308594 60.980469 86.558594 62.65625 83.585938 C 65.824219 78.414062 67.914062 75 75 75 C 82.085938 75 84.175781 78.414062 87.34375 83.585938 Z M 87.34375 83.585938 "/>
<path style=" stroke:none;fill-rule:nonzero;fill:rgb(0%,0%,0%);fill-opacity:1;" d="M 60.835938 67.433594 C 61.300781 67.433594 61.761719 67.398438 62.222656 67.335938 C 69.039062 66.355469 73.554688 58.335938 72.28125 49.46875 C 71.011719 40.605469 64.441406 34.183594 57.59375 35.164062 C 50.75 36.148438 46.261719 44.164062 47.535156 53.027344 C 48.726562 61.296875 54.53125 67.433594 60.835938 67.433594 Z M 58.308594 40.113281 C 62.386719 39.535156 66.464844 44.152344 67.332031 50.183594 C 68.199219 56.210938 65.53125 61.808594 61.511719 62.386719 C 57.488281 62.960938 53.351562 58.351562 52.484375 52.316406 C 51.617188 46.285156 54.285156 40.691406 58.308594 40.113281 Z M 58.308594 40.113281 "/>
<path style=" stroke:none;fill-rule:nonzero;fill:rgb(0%,0%,0%);fill-opacity:1;" d="M 92.40625 35.164062 C 85.554688 34.164062 78.996094 40.601562 77.71875 49.472656 C 76.441406 58.34375 80.96875 66.355469 87.777344 67.335938 C 88.238281 67.398438 88.699219 67.433594 89.164062 67.433594 C 95.46875 67.433594 101.273438 61.296875 102.464844 53.03125 C 103.75 44.160156 99.222656 36.144531 92.40625 35.164062 Z M 97.515625 52.316406 C 96.648438 58.355469 92.476562 62.984375 88.488281 62.386719 C 84.46875 61.808594 81.800781 56.21875 82.667969 50.183594 C 83.488281 44.488281 87.210938 40.066406 91.003906 40.066406 C 91.234375 40.066406 91.464844 40.082031 91.691406 40.113281 C 95.714844 40.691406 98.382812 46.28125 97.515625 52.316406 Z M 97.515625 52.316406 "/>
</g>
</svg>
