<?xml version="1.0" encoding="UTF-8"?>
<svg xmlns="http://www.w3.org/2000/svg" xmlns:xlink="http://www.w3.org/1999/xlink" width="150pt" height="150pt" viewBox="0 0 150 150" version="1.1">
<g id="surface1">
<path style=" stroke:none;fill-rule:nonzero;fill:rgb(0%,0%,0%);fill-opacity:1;" d="M 20.308594 23.074219 C 21.5 23.066406 22.671875 22.785156 23.734375 22.25 L 30.863281 29.382812 L 30.65625 29.589844 C 28.714844 31.542969 28.714844 34.695312 30.65625 36.648438 L 34.5 40.5 C 31.667969 42.84375 30.019531 46.324219 30 50 C 30.003906 50.867188 30.09375 51.734375 30.273438 52.582031 C 25.1875 60.824219 22.496094 70.316406 22.5 80 C 22.613281 105.066406 40.359375 126.589844 64.945312 131.476562 L 64.40625 135 L 52.5 135 C 48.359375 135 45 138.359375 45 142.5 C 45.054688 146.621094 48.378906 149.945312 52.5 150 L 97.5 150 C 101.640625 150 105 146.640625 105 142.5 C 104.945312 138.378906 101.621094 135.054688 97.5 135 L 82.5 135 L 82.5 131.949219 C 96.898438 129.910156 109.792969 121.953125 118.074219 110 L 130 110 C 134.140625 110 137.5 106.640625 137.5 102.5 C 137.5 98.359375 134.140625 95 130 95 L 85 95 C 80.859375 95 77.5 98.359375 77.5 102.5 C 77.5 106.640625 80.859375 110 85 110 L 93 110 C 89.007812 112.402344 84.570312 113.96875 79.953125 114.613281 C 76.988281 111.835938 72.390625 111.789062 69.371094 114.503906 C 57.972656 112.664062 48.21875 105.308594 43.3125 94.855469 C 38.40625 84.402344 38.976562 72.203125 44.84375 62.253906 C 47.648438 61.707031 50.179688 60.203125 52.011719 58.003906 L 66.183594 72.175781 C 67.121094 73.121094 68.398438 73.648438 69.726562 73.640625 C 70.214844 73.636719 70.695312 73.558594 71.160156 73.40625 L 76.210938 78.484375 C 78.230469 80.492188 81.488281 80.492188 83.503906 78.484375 L 91.003906 70.984375 C 93.015625 68.964844 93.015625 65.703125 91.003906 63.683594 L 85.9375 58.636719 C 86.5 56.878906 86.023438 54.957031 84.707031 53.664062 L 49.167969 18.132812 C 47.210938 16.179688 44.039062 16.179688 42.082031 18.132812 L 41.875 18.339844 L 34.75 11.214844 C 35.953125 8.808594 35.820312 5.953125 34.402344 3.664062 C 32.988281 1.378906 30.484375 -0.0078125 27.796875 0 C 25.730469 -0.0078125 23.753906 0.808594 22.296875 2.269531 L 14.796875 9.769531 C 12.566406 12 11.898438 15.347656 13.101562 18.261719 C 14.304688 21.175781 17.144531 23.078125 20.296875 23.082031 Z M 97.5 140 C 98.859375 140.050781 99.949219 141.140625 100 142.5 C 100 143.878906 98.878906 145 97.5 145 L 52.5 145 C 51.148438 144.933594 50.066406 143.851562 50 142.5 C 50 141.121094 51.121094 140 52.5 140 Z M 82.5 102.5 C 82.5 101.121094 83.621094 100 85 100 L 130 100 C 131.378906 100 132.5 101.121094 132.5 102.5 C 132.5 103.878906 131.378906 105 130 105 L 85 105 C 83.621094 105 82.5 103.878906 82.5 102.5 Z M 111.832031 110 C 104.484375 119.070312 94.03125 125.09375 82.5 126.90625 L 82.5 120.375 C 82.488281 120.015625 82.453125 119.660156 82.390625 119.304688 C 89.460938 117.988281 96.039062 114.773438 101.421875 110 Z M 74.625 117.5 C 76.210938 117.5 77.5 118.789062 77.5 120.375 L 77.5 135 L 69.460938 135 L 71.769531 119.953125 C 71.980469 118.539062 73.195312 117.492188 74.625 117.5 Z M 66.84375 119.136719 C 66.839844 119.15625 66.832031 119.175781 66.828125 119.199219 L 65.703125 126.53125 C 43.550781 122.03125 27.601562 102.601562 27.5 80 C 27.496094 72.320312 29.367188 64.757812 32.949219 57.96875 C 34.589844 59.941406 36.800781 61.359375 39.28125 62.027344 C 33.683594 73.121094 33.570312 86.191406 38.96875 97.382812 C 44.371094 108.574219 54.675781 116.613281 66.84375 119.136719 Z M 42.5 57.5 C 38.359375 57.5 35 54.140625 35 50 C 35 45.859375 38.359375 42.5 42.5 42.5 C 46.640625 42.5 50 45.859375 50 50 C 50 54.140625 46.640625 57.5 42.5 57.5 Z M 79.75 74.960938 L 75.136719 70.328125 L 82.800781 62.660156 L 87.460938 67.464844 Z M 45.628906 21.667969 L 81.15625 57.203125 C 81.117188 57.246094 81.039062 57.335938 80.972656 57.417969 L 69.722656 68.667969 L 54.472656 53.417969 C 54.808594 52.308594 54.984375 51.160156 55 50 C 54.992188 43.101562 49.398438 37.507812 42.5 37.5 C 41.347656 37.515625 40.199219 37.695312 39.09375 38.03125 L 34.195312 33.117188 Z M 34.398438 25.835938 L 27.582031 19.019531 L 31.535156 15.066406 L 38.34375 21.878906 Z M 18.324219 13.304688 L 25.84375 5.78125 C 26.363281 5.273438 27.066406 4.988281 27.792969 5 C 28.53125 4.992188 29.238281 5.28125 29.761719 5.804688 C 30.851562 6.902344 30.851562 8.675781 29.761719 9.769531 L 22.289062 17.25 C 21.179688 18.3125 19.433594 18.3125 18.324219 17.25 C 17.789062 16.722656 17.492188 16 17.5 15.25 C 17.503906 14.519531 17.800781 13.816406 18.324219 13.304688 Z M 18.324219 13.304688 "/>
</g>
</svg>
