<?xml version="1.0" encoding="UTF-8"?>
<svg xmlns="http://www.w3.org/2000/svg" xmlns:xlink="http://www.w3.org/1999/xlink" width="150pt" height="150pt" viewBox="0 0 150 150" version="1.1">
<g id="surface1">
<path style=" stroke:none;fill-rule:nonzero;fill:rgb(0%,0%,0%);fill-opacity:1;" d="M 49.421875 42.890625 C 32.472656 42.890625 18.730469 56.632812 18.730469 73.582031 C 18.730469 90.535156 32.472656 104.273438 49.421875 104.273438 C 66.375 104.273438 80.117188 90.535156 80.117188 73.582031 C 80.117188 56.632812 66.375 42.890625 49.421875 42.890625 Z M 72.136719 62.074219 L 61.074219 62.074219 C 60.019531 56.773438 58.367188 52.488281 56.679688 49.183594 C 63.4375 51.199219 68.988281 55.886719 72.136719 62.074219 Z M 57.097656 73.582031 C 57.097656 75.867188 56.925781 77.964844 56.691406 79.976562 L 42.15625 79.976562 C 41.921875 77.964844 41.75 75.867188 41.75 73.582031 C 41.75 71.296875 41.917969 69.199219 42.152344 67.1875 L 56.695312 67.1875 C 56.925781 69.199219 57.097656 71.296875 57.097656 73.582031 Z M 48.679688 48.082031 C 48.929688 48.074219 49.167969 48.003906 49.421875 48.003906 C 49.679688 48.003906 49.917969 48.074219 50.175781 48.082031 C 52.09375 51.027344 54.429688 55.683594 55.84375 62.074219 L 43.003906 62.074219 C 44.425781 55.664062 46.769531 51.007812 48.679688 48.082031 Z M 42.167969 49.183594 C 40.484375 52.480469 38.832031 56.769531 37.773438 62.074219 L 26.707031 62.074219 C 29.859375 55.886719 35.40625 51.199219 42.167969 49.183594 Z M 23.847656 73.582031 C 23.847656 71.363281 24.21875 69.246094 24.753906 67.1875 L 36.996094 67.1875 C 36.78125 69.214844 36.632812 71.320312 36.632812 73.582031 C 36.632812 75.84375 36.785156 77.949219 37.003906 79.976562 L 24.753906 79.976562 C 24.21875 77.921875 23.847656 75.804688 23.847656 73.582031 Z M 26.707031 85.09375 L 37.785156 85.09375 C 38.855469 90.40625 40.507812 94.726562 42.160156 97.980469 C 35.402344 95.960938 29.859375 91.277344 26.707031 85.09375 Z M 50.164062 99.085938 C 49.914062 99.09375 49.675781 99.160156 49.421875 99.160156 C 49.167969 99.160156 48.933594 99.09375 48.679688 99.085938 C 46.84375 96.265625 44.457031 91.597656 43.011719 85.09375 L 55.835938 85.09375 C 54.390625 91.59375 52.003906 96.257812 50.164062 99.085938 Z M 56.6875 97.980469 C 58.339844 94.722656 59.996094 90.40625 61.0625 85.09375 L 72.136719 85.09375 C 68.988281 91.277344 63.441406 95.960938 56.6875 97.980469 Z M 61.84375 79.976562 C 62.058594 77.949219 62.210938 75.84375 62.210938 73.582031 C 62.210938 71.320312 62.0625 69.214844 61.851562 67.1875 L 74.09375 67.1875 C 74.625 69.246094 75 71.363281 75 73.582031 C 75 75.804688 74.625 77.921875 74.09375 79.976562 Z M 61.84375 79.976562 "/>
<path style=" stroke:none;fill-rule:nonzero;fill:rgb(0%,0%,0%);fill-opacity:1;" d="M 23.847656 119.621094 L 75 119.621094 L 75 124.738281 L 23.847656 124.738281 Z M 23.847656 119.621094 "/>
<path style=" stroke:none;fill-rule:nonzero;fill:rgb(0%,0%,0%);fill-opacity:1;" d="M 107.964844 92.65625 L 110.613281 82.773438 L 115.554688 84.097656 L 112.902344 93.980469 Z M 107.964844 92.65625 "/>
<path style=" stroke:none;fill-rule:nonzero;fill:rgb(0%,0%,0%);fill-opacity:1;" d="M 96.046875 137.113281 L 105.316406 102.527344 L 110.253906 103.851562 L 100.988281 138.4375 Z M 96.046875 137.113281 "/>
<path style=" stroke:none;fill-rule:nonzero;fill:rgb(0%,0%,0%);fill-opacity:1;" d="M 139.03125 16.238281 L 79.738281 0.351562 C 78.851562 0.113281 77.960938 0 77.082031 0 C 72.566406 0 68.433594 3.015625 67.207031 7.585938 L 61.859375 27.542969 L 8.5 27.542969 C 5.675781 27.542969 3.382812 29.835938 3.382812 32.660156 L 3.382812 134.96875 C 3.382812 137.792969 5.675781 140.082031 8.5 140.082031 L 67.582031 140.082031 L 103.285156 149.648438 C 104.171875 149.886719 105.058594 150 105.9375 150 C 110.453125 150 114.589844 146.984375 115.8125 142.414062 L 146.265625 28.769531 C 147.726562 23.3125 144.488281 17.703125 139.03125 16.238281 Z M 8.5 134.96875 L 8.5 32.660156 L 85.230469 32.660156 C 88.050781 32.660156 90.347656 34.953125 90.347656 37.773438 L 90.347656 129.851562 C 90.347656 132.671875 88.050781 134.96875 85.230469 134.96875 Z M 141.324219 27.445312 L 110.871094 141.089844 C 110.273438 143.324219 108.242188 144.886719 105.9375 144.886719 C 105.492188 144.886719 105.046875 144.824219 104.605469 144.707031 L 86.769531 139.929688 C 91.683594 139.179688 95.460938 134.976562 95.460938 129.851562 L 95.460938 89.300781 L 98.082031 90 L 100.730469 80.117188 L 95.789062 78.792969 L 95.460938 80.015625 L 95.460938 39.367188 C 97.054688 39.792969 98.898438 40.285156 100.679688 40.765625 L 106.730469 60.542969 L 110.964844 61.679688 L 110.566406 43.414062 C 113.347656 44.160156 116.1875 44.917969 118.046875 45.417969 L 121.335938 51.21875 L 124.160156 51.972656 L 123.671875 43.898438 L 128.132812 37.148438 L 125.308594 36.394531 L 119.5625 39.769531 C 117.699219 39.273438 114.859375 38.511719 112.078125 37.765625 L 121.558594 22.148438 L 117.324219 21.015625 L 102.195312 35.117188 C 99.21875 34.320312 95.972656 33.453125 94.214844 32.980469 C 92.492188 29.761719 89.136719 27.542969 85.230469 27.542969 L 67.152344 27.542969 L 72.148438 8.910156 C 72.746094 6.675781 74.777344 5.117188 77.082031 5.117188 C 77.527344 5.117188 77.976562 5.175781 78.414062 5.292969 L 137.707031 21.179688 C 139.027344 21.535156 140.128906 22.382812 140.8125 23.5625 C 141.496094 24.746094 141.675781 26.125 141.324219 27.445312 Z M 141.324219 27.445312 "/>
<path style=" stroke:none;fill-rule:nonzero;fill:rgb(0%,0%,0%);fill-opacity:1;" d="M 107.972656 74.195312 L 109.28125 69.25 L 114.140625 70.539062 L 112.832031 75.484375 Z M 107.972656 74.195312 "/>
<path style=" stroke:none;fill-rule:nonzero;fill:rgb(0%,0%,0%);fill-opacity:1;" d="M 117.679688 76.777344 L 118.988281 71.832031 L 123.851562 73.117188 L 122.542969 78.0625 Z M 117.679688 76.777344 "/>
<path style=" stroke:none;fill-rule:nonzero;fill:rgb(0%,0%,0%);fill-opacity:1;" d="M 98.265625 71.625 L 99.570312 66.679688 L 104.433594 67.964844 L 103.125 72.910156 Z M 98.265625 71.625 "/>
</g>
</svg>
