<?xml version="1.0" encoding="UTF-8"?>
<svg xmlns="http://www.w3.org/2000/svg" xmlns:xlink="http://www.w3.org/1999/xlink" width="150pt" height="150pt" viewBox="0 0 150 150" version="1.1">
<g id="surface1">
<path style=" stroke:none;fill-rule:nonzero;fill:rgb(0%,0%,0%);fill-opacity:1;" d="M 32.707031 83.5 C 30.910156 87.066406 29.980469 91.007812 30 95 C 30 107.015625 34.691406 110.78125 42.5 111.960938 L 42.5 132.5 C 42.503906 132.816406 42.566406 133.132812 42.6875 133.425781 L 42.703125 133.460938 L 42.703125 133.484375 C 45.316406 139.898438 56.347656 150 75 150 C 89.863281 150 100.132812 143.5 104.859375 137.5 L 107.5 137.5 C 110.667969 137.488281 113.484375 135.484375 114.539062 132.5 L 122.5 132.5 C 122.5 135.261719 124.738281 137.5 127.5 137.5 L 142.5 137.5 C 146.640625 137.5 150 134.140625 150 130 C 150 125.859375 146.640625 122.5 142.5 122.5 L 127.5 122.5 C 124.738281 122.5 122.5 124.738281 122.5 127.5 L 114.539062 127.5 C 113.484375 124.515625 110.667969 122.511719 107.5 122.5 L 107.5 111.960938 C 115.308594 110.78125 120 107.015625 120 95 C 120.019531 91.015625 119.09375 87.082031 117.300781 83.523438 C 123.964844 74.921875 128.179688 64.675781 129.5 53.871094 C 129.566406 53.414062 129.605469 52.953125 129.65625 52.496094 C 133.21875 54.09375 136.921875 55.347656 140.71875 56.246094 C 141.289062 56.386719 141.878906 56.457031 142.46875 56.453125 C 144.285156 56.453125 146.042969 55.800781 147.417969 54.613281 C 149.265625 53.019531 150.214844 50.621094 149.957031 48.191406 L 146.796875 23.414062 C 146.015625 14.382812 138.4375 7.460938 129.371094 7.5 L 107.5 7.5 C 106.085938 7.5 104.675781 7.589844 103.273438 7.773438 C 85.851562 -2.59375 64.148438 -2.59375 46.726562 7.773438 C 45.324219 7.589844 43.914062 7.5 42.5 7.5 L 20.628906 7.5 C 11.59375 7.449219 4.027344 14.324219 3.210938 23.324219 L 0.03125 48.292969 C -0.203125 50.691406 0.75 53.054688 2.578125 54.625 C 3.957031 55.8125 5.710938 56.464844 7.53125 56.464844 C 8.121094 56.464844 8.707031 56.394531 9.28125 56.257812 C 13.085938 55.359375 16.796875 54.101562 20.363281 52.5 C 21.519531 63.777344 25.792969 74.511719 32.707031 83.5 Z M 127.5 127.5 L 142.5 127.5 C 143.878906 127.5 145 128.621094 145 130 C 145 131.378906 143.878906 132.5 142.5 132.5 L 127.5 132.5 Z M 62.5 125 C 63.878906 125 65 123.878906 65 122.5 L 72.5 122.5 L 72.5 125 C 72.5 126.378906 73.621094 127.5 75 127.5 C 76.378906 127.5 77.5 126.378906 77.5 125 L 77.5 122.5 L 85 122.5 C 85 123.878906 86.121094 125 87.5 125 C 88.878906 125 90 123.878906 90 122.5 L 95.425781 122.5 C 96.097656 122.5 96.738281 122.769531 97.207031 123.25 L 98.003906 124.046875 C 96.121094 125.449219 95.007812 127.652344 95 130 L 47.5 130 L 47.5 128.535156 L 52.792969 123.25 C 53.261719 122.769531 53.902344 122.5 54.574219 122.5 L 60 122.5 C 60 123.878906 61.121094 125 62.5 125 Z M 75 145 C 61.863281 145 53.472656 139.5 49.570312 135 L 96.949219 135 C 97.523438 135.632812 98.199219 136.164062 98.949219 136.570312 C 92.324219 142.316406 83.765625 145.332031 75 145 Z M 110 130 C 110 131.378906 108.878906 132.5 107.5 132.5 L 102.5 132.5 C 101.121094 132.5 100 131.378906 100 130 C 100 128.621094 101.121094 127.5 102.5 127.5 L 107.5 127.5 C 108.878906 127.5 110 128.621094 110 130 Z M 102.5 121.464844 L 100.75 119.714844 C 99.34375 118.292969 97.425781 117.496094 95.425781 117.5 L 90 117.5 C 90 116.121094 88.878906 115 87.5 115 C 86.121094 115 85 116.121094 85 117.5 L 77.5 117.5 L 77.5 115 C 77.5 113.621094 76.378906 112.5 75 112.5 C 73.621094 112.5 72.5 113.621094 72.5 115 L 72.5 117.5 L 65 117.5 C 65 116.121094 63.878906 115 62.5 115 C 61.121094 115 60 116.121094 60 117.5 L 54.574219 117.5 C 52.578125 117.496094 50.664062 118.289062 49.257812 119.707031 L 47.507812 121.457031 L 47.507812 112.398438 C 49.824219 112.5 52.328125 112.5 55 112.5 C 65.964844 112.5 72.109375 108.691406 75 106.136719 C 77.890625 108.691406 84.035156 112.5 95 112.5 C 97.671875 112.5 100.175781 112.5 102.5 112.398438 Z M 95 107.5 C 83.773438 107.5 78.859375 103.121094 77.5 101.617188 L 77.5 92.5 C 77.5 91.121094 76.378906 90 75 90 C 73.621094 90 72.5 91.121094 72.5 92.5 L 72.5 101.613281 C 71.117188 103.140625 66.199219 107.5 55 107.5 C 39.148438 107.5 35 107 35 95 C 35 80.527344 48.230469 73.308594 60.402344 69.722656 C 61.972656 76.058594 68.050781 82.5 75 82.5 C 81.949219 82.5 88.027344 76.058594 89.597656 69.722656 C 101.769531 73.308594 115 80.527344 115 95 C 115 107 110.851562 107.5 95 107.5 Z M 65 66.667969 C 65 65.210938 65 62.5 75 62.5 C 85 62.5 85 65.210938 85 66.667969 C 85 70.84375 80.421875 77.5 75 77.5 C 69.578125 77.5 65 70.84375 65 66.667969 Z M 42.589844 22.585938 C 41.257812 22.222656 39.886719 23.007812 39.519531 24.335938 C 34.550781 42.558594 17.71875 49.113281 8.125 51.394531 C 7.324219 51.59375 6.476562 51.386719 5.855469 50.84375 C 5.269531 50.351562 4.953125 49.609375 5 48.84375 L 8.183594 23.867188 C 8.738281 17.414062 14.152344 12.472656 20.628906 12.5 L 42.5 12.5 C 48.535156 12.5 50.441406 14 50.625 14.152344 C 51.519531 15.148438 53.042969 15.261719 54.074219 14.40625 C 55.105469 13.554688 55.285156 12.039062 54.476562 10.972656 C 54.144531 10.574219 53.753906 10.222656 53.324219 9.933594 C 67.027344 3.355469 82.972656 3.355469 96.675781 9.933594 C 96.246094 10.222656 95.855469 10.574219 95.523438 10.972656 C 94.660156 12.070312 94.832031 13.65625 95.914062 14.546875 C 96.417969 14.960938 97.066406 15.15625 97.71875 15.082031 C 98.367188 15.011719 98.960938 14.679688 99.363281 14.164062 C 99.378906 14.148438 101.164062 12.5 107.5 12.5 L 129.371094 12.5 C 135.875 12.480469 141.304688 17.472656 141.828125 23.957031 L 145 48.75 C 145.078125 49.546875 144.761719 50.328125 144.15625 50.851562 C 143.535156 51.390625 142.6875 51.597656 141.886719 51.398438 C 132.292969 49.117188 115.457031 42.566406 110.488281 24.347656 C 110.125 23.015625 108.753906 22.230469 107.421875 22.59375 C 106.085938 22.957031 105.300781 24.332031 105.664062 25.664062 C 108.503906 36.03125 115.414062 44.808594 124.824219 50 C 124.753906 51.054688 124.699219 52.101562 124.542969 53.21875 C 123.410156 62.539062 119.933594 71.421875 114.433594 79.035156 C 109.414062 72.664062 101.066406 67.730469 89.761719 64.585938 C 88.214844 57.523438 78.761719 57.5 75 57.5 C 71.238281 57.5 61.785156 57.523438 60.25 64.589844 C 48.957031 67.730469 40.617188 72.65625 35.59375 79.015625 C 29.484375 70.503906 25.875 60.453125 25.171875 50 C 34.589844 44.808594 41.507812 36.023438 44.34375 25.648438 C 44.703125 24.320312 43.917969 22.949219 42.589844 22.585938 Z M 42.589844 22.585938 "/>
<path style=" stroke:none;fill-rule:nonzero;fill:rgb(0%,0%,0%);fill-opacity:1;" d="M 45 95 C 45 96.378906 43.878906 97.5 42.5 97.5 C 41.121094 97.5 40 96.378906 40 95 C 40 93.621094 41.121094 92.5 42.5 92.5 C 43.878906 92.5 45 93.621094 45 95 Z M 45 95 "/>
<path style=" stroke:none;fill-rule:nonzero;fill:rgb(0%,0%,0%);fill-opacity:1;" d="M 55 100 C 55 101.378906 53.878906 102.5 52.5 102.5 C 51.121094 102.5 50 101.378906 50 100 C 50 98.621094 51.121094 97.5 52.5 97.5 C 53.878906 97.5 55 98.621094 55 100 Z M 55 100 "/>
<path style=" stroke:none;fill-rule:nonzero;fill:rgb(0%,0%,0%);fill-opacity:1;" d="M 55 90 C 55 91.378906 53.878906 92.5 52.5 92.5 C 51.121094 92.5 50 91.378906 50 90 C 50 88.621094 51.121094 87.5 52.5 87.5 C 53.878906 87.5 55 88.621094 55 90 Z M 55 90 "/>
<path style=" stroke:none;fill-rule:nonzero;fill:rgb(0%,0%,0%);fill-opacity:1;" d="M 110 95 C 110 96.378906 108.878906 97.5 107.5 97.5 C 106.121094 97.5 105 96.378906 105 95 C 105 93.621094 106.121094 92.5 107.5 92.5 C 108.878906 92.5 110 93.621094 110 95 Z M 110 95 "/>
<path style=" stroke:none;fill-rule:nonzero;fill:rgb(0%,0%,0%);fill-opacity:1;" d="M 100 100 C 100 101.378906 98.878906 102.5 97.5 102.5 C 96.121094 102.5 95 101.378906 95 100 C 95 98.621094 96.121094 97.5 97.5 97.5 C 98.878906 97.5 100 98.621094 100 100 Z M 100 100 "/>
<path style=" stroke:none;fill-rule:nonzero;fill:rgb(0%,0%,0%);fill-opacity:1;" d="M 100 90 C 100 91.378906 98.878906 92.5 97.5 92.5 C 96.121094 92.5 95 91.378906 95 90 C 95 88.621094 96.121094 87.5 97.5 87.5 C 98.878906 87.5 100 88.621094 100 90 Z M 100 90 "/>
<path style=" stroke:none;fill-rule:nonzero;fill:rgb(0%,0%,0%);fill-opacity:1;" d="M 42.5 47.5 C 42.5 48.878906 43.621094 50 45 50 C 46.980469 49.957031 48.945312 50.378906 50.734375 51.234375 C 45.003906 51.488281 39.609375 54.007812 35.734375 58.234375 C 35.085938 58.863281 34.824219 59.792969 35.054688 60.667969 C 35.28125 61.539062 35.964844 62.222656 36.839844 62.453125 C 37.710938 62.679688 38.640625 62.417969 39.269531 61.769531 C 47.796875 53.242188 56.050781 57.078125 56.386719 57.238281 C 57.289062 57.699219 58.382812 57.566406 59.152344 56.902344 C 59.917969 56.238281 60.207031 55.175781 59.886719 54.210938 C 59.75 53.832031 56.667969 45 45 45 C 43.621094 45 42.5 46.121094 42.5 47.5 Z M 42.5 47.5 "/>
<path style=" stroke:none;fill-rule:nonzero;fill:rgb(0%,0%,0%);fill-opacity:1;" d="M 93.617188 57.25 C 93.699219 57.203125 102.105469 53.152344 110.734375 61.78125 C 111.714844 62.726562 113.273438 62.714844 114.238281 61.75 C 115.203125 60.785156 115.214844 59.226562 114.265625 58.246094 C 110.390625 54.011719 104.988281 51.496094 99.253906 51.246094 C 101.042969 50.386719 103.011719 49.960938 105 50 C 106.378906 50 107.5 48.878906 107.5 47.5 C 107.5 46.121094 106.378906 45 105 45 C 93.332031 45 90.25 53.832031 90.128906 54.210938 C 89.804688 55.171875 90.09375 56.234375 90.859375 56.898438 C 91.628906 57.5625 92.722656 57.695312 93.628906 57.238281 Z M 93.617188 57.25 "/>
</g>
</svg>
