<?xml version="1.0" encoding="UTF-8"?>
<svg xmlns="http://www.w3.org/2000/svg" xmlns:xlink="http://www.w3.org/1999/xlink" width="150pt" height="150pt" viewBox="0 0 150 150" version="1.1">
<g id="surface1">
<path style=" stroke:none;fill-rule:nonzero;fill:rgb(0%,0%,0%);fill-opacity:1;" d="M 150 15.726562 C 150 12.582031 148.777344 9.625 146.550781 7.402344 C 141.960938 2.808594 134.492188 2.816406 129.902344 7.402344 L 45.765625 91.539062 C 44.480469 92.824219 43.9375 94.628906 44.175781 96.398438 L 0.738281 139.832031 C 0.136719 140.4375 -0.125 141.304688 0.0546875 142.144531 C 0.234375 142.980469 0.824219 143.667969 1.617188 143.976562 C 2.03125 144.136719 7.140625 146.042969 14.050781 146.042969 C 20.890625 146.042969 29.488281 144.167969 37.011719 136.863281 L 54.996094 118.878906 C 55.589844 118.28125 55.851562 117.425781 55.683594 116.597656 L 54.316406 109.75 L 60.136719 103.925781 L 61.03125 104.132812 C 61.648438 104.277344 62.273438 104.347656 62.886719 104.347656 C 65.03125 104.347656 67.097656 103.503906 68.65625 101.945312 L 136.8125 33.789062 C 136.8125 33.789062 136.816406 33.789062 136.816406 33.789062 L 146.550781 24.054688 C 148.777344 21.828125 150 18.871094 150 15.726562 Z M 125.941406 37.523438 L 119.996094 24.449219 L 125.992188 18.449219 L 131.9375 31.527344 Z M 116.128906 47.335938 L 110.183594 34.261719 L 116.183594 28.265625 L 122.125 41.339844 Z M 54.335938 102.589844 L 49.789062 107.132812 C 49.195312 107.730469 48.933594 108.585938 49.101562 109.414062 L 50.46875 116.261719 L 33.46875 133.265625 C 24.328125 142.140625 13.195312 141.5 7.382812 140.332031 L 47.039062 100.675781 C 47.054688 100.683594 47.074219 100.683594 47.089844 100.691406 C 47.542969 100.941406 48.035156 101.132812 48.550781 101.253906 Z M 65.089844 98.375 C 64.320312 99.144531 63.234375 99.460938 62.164062 99.214844 L 49.6875 96.332031 C 49.558594 96.300781 49.480469 96.238281 49.402344 96.171875 C 49.34375 96.121094 49.289062 96.074219 49.238281 95.984375 C 49.207031 95.929688 49.164062 95.875 49.152344 95.824219 C 49.097656 95.636719 49.085938 95.359375 49.335938 95.109375 L 106.371094 38.074219 L 112.3125 51.148438 Z M 142.980469 20.484375 L 135.75 27.714844 L 129.804688 14.640625 L 133.472656 10.972656 C 134.785156 9.660156 136.503906 9.007812 138.230469 9.007812 C 139.953125 9.007812 141.671875 9.660156 142.984375 10.972656 C 144.253906 12.242188 144.953125 13.929688 144.953125 15.726562 C 144.953125 17.519531 144.25 19.214844 142.980469 20.484375 Z M 142.980469 20.484375 "/>
<path style=" stroke:none;fill-rule:nonzero;fill:rgb(0%,0%,0%);fill-opacity:1;" d="M 32.210938 120.828125 L 27.164062 125.878906 C 26.175781 126.867188 26.175781 128.460938 27.164062 129.449219 C 27.65625 129.941406 28.300781 130.1875 28.949219 130.1875 C 29.59375 130.1875 30.242188 129.941406 30.734375 129.449219 L 35.78125 124.398438 C 36.769531 123.414062 36.769531 121.816406 35.78125 120.828125 C 34.796875 119.84375 33.199219 119.84375 32.210938 120.828125 Z M 32.210938 120.828125 "/>
<path style=" stroke:none;fill-rule:nonzero;fill:rgb(0%,0%,0%);fill-opacity:1;" d="M 22.097656 130.921875 C 21.644531 131.402344 21.367188 132.058594 21.367188 132.714844 C 21.367188 133.371094 21.644531 134.027344 22.097656 134.507812 C 22.578125 134.960938 23.234375 135.238281 23.890625 135.238281 C 24.574219 135.238281 25.203125 134.960938 25.683594 134.507812 C 26.164062 134.027344 26.414062 133.371094 26.414062 132.714844 C 26.414062 132.058594 26.164062 131.402344 25.683594 130.921875 C 24.75 129.988281 23.058594 129.988281 22.097656 130.921875 Z M 22.097656 130.921875 "/>
</g>
</svg>
