<?xml version="1.0" encoding="UTF-8"?>
<svg xmlns="http://www.w3.org/2000/svg" xmlns:xlink="http://www.w3.org/1999/xlink" width="150pt" height="150pt" viewBox="0 0 150 150" version="1.1">
<g id="surface1">
<path style=" stroke:none;fill-rule:nonzero;fill:rgb(0%,0%,0%);fill-opacity:1;" d="M 72.46875 100.53125 C 72.160156 98.921875 71.273438 97.523438 69.976562 96.542969 L 79.601562 82.332031 C 80.28125 81.324219 80.019531 79.953125 79.011719 79.269531 C 78 78.585938 76.632812 78.851562 75.949219 79.859375 L 66.332031 94.054688 L 55.269531 86.5625 L 110.257812 5.367188 C 115.953125 10.371094 117.175781 18.976562 112.816406 25.417969 L 81.3125 71.933594 C 80.632812 72.941406 80.894531 74.3125 81.902344 74.996094 C 82.910156 75.679688 84.28125 75.417969 84.964844 74.40625 L 116.46875 27.890625 C 122.558594 18.898438 120.195312 6.625 111.203125 0.535156 L 110.972656 0.378906 C 109.964844 -0.304688 108.59375 -0.0390625 107.910156 0.96875 L 51.609375 84.105469 C 48.640625 82.3125 44.75 83.132812 42.78125 86.035156 L 38.980469 91.652344 C 32.101562 92.488281 25.761719 95.730469 21.027344 100.855469 C 16.019531 106.277344 13.261719 113.332031 13.261719 120.71875 C 13.261719 136.863281 26.398438 150 42.542969 150 C 58.691406 150 71.828125 136.863281 71.828125 120.71875 C 71.828125 116.519531 70.964844 112.484375 69.257812 108.703125 L 71.457031 105.453125 C 72.441406 104.003906 72.800781 102.253906 72.46875 100.53125 Z M 67.804688 102.980469 L 64.894531 107.277344 C 64.449219 107.941406 64.394531 108.792969 64.753906 109.507812 C 66.523438 113.003906 67.417969 116.773438 67.417969 120.71875 C 67.417969 134.433594 56.257812 145.589844 42.542969 145.589844 C 28.828125 145.589844 17.671875 134.433594 17.671875 120.71875 C 17.671875 114.445312 20.015625 108.453125 24.265625 103.847656 C 28.496094 99.269531 34.230469 96.460938 40.414062 95.9375 C 41.078125 95.878906 41.683594 95.527344 42.054688 94.976562 L 46.433594 88.507812 C 46.851562 87.894531 47.53125 87.5625 48.222656 87.5625 C 48.636719 87.5625 49.058594 87.683594 49.425781 87.933594 L 67.230469 99.988281 C 68.214844 100.65625 68.472656 102 67.804688 102.980469 Z M 67.804688 102.980469 "/>
<path style=" stroke:none;fill-rule:nonzero;fill:rgb(0%,0%,0%);fill-opacity:1;" d="M 42.542969 103.195312 C 32.882812 103.195312 25.023438 111.054688 25.023438 120.71875 C 25.023438 124.035156 25.957031 127.265625 27.730469 130.066406 C 28.378906 131.097656 29.742188 131.402344 30.769531 130.753906 C 31.800781 130.101562 32.105469 128.742188 31.457031 127.710938 C 30.132812 125.617188 29.433594 123.199219 29.433594 120.71875 C 29.433594 113.488281 35.316406 107.605469 42.542969 107.605469 C 49.773438 107.605469 55.65625 113.488281 55.65625 120.71875 C 55.65625 127.945312 49.773438 133.828125 42.542969 133.828125 C 40.867188 133.828125 39.226562 133.511719 37.667969 132.886719 C 36.539062 132.433594 35.253906 132.984375 34.800781 134.113281 C 34.347656 135.246094 34.894531 136.527344 36.027344 136.980469 C 38.109375 137.816406 40.300781 138.238281 42.542969 138.238281 C 52.207031 138.238281 60.066406 130.378906 60.066406 120.71875 C 60.066406 111.054688 52.207031 103.195312 42.542969 103.195312 Z M 42.542969 103.195312 "/>
<path style=" stroke:none;fill-rule:nonzero;fill:rgb(0%,0%,0%);fill-opacity:1;" d="M 67.785156 46.777344 C 68.210938 47.40625 68.90625 47.746094 69.613281 47.746094 C 70.039062 47.746094 70.46875 47.621094 70.847656 47.363281 C 71.855469 46.683594 72.121094 45.3125 71.4375 44.300781 L 59.996094 27.410156 C 59.3125 26.402344 57.941406 26.136719 56.933594 26.820312 C 55.925781 27.503906 55.664062 28.875 56.34375 29.882812 Z M 67.785156 46.777344 "/>
<path style=" stroke:none;fill-rule:nonzero;fill:rgb(0%,0%,0%);fill-opacity:1;" d="M 57.054688 62.625 C 57.480469 63.253906 58.171875 63.59375 58.882812 63.59375 C 59.304688 63.59375 59.738281 63.46875 60.113281 63.210938 C 61.125 62.527344 61.386719 61.160156 60.703125 60.148438 L 37.296875 25.589844 C 34.976562 22.160156 34.128906 18.035156 34.914062 13.972656 C 35.558594 10.617188 37.253906 7.632812 39.757812 5.386719 L 50.980469 21.957031 C 51.660156 22.96875 53.03125 23.230469 54.042969 22.546875 C 55.050781 21.863281 55.3125 20.496094 54.632812 19.484375 L 42.089844 0.96875 C 41.761719 0.484375 41.253906 0.148438 40.679688 0.0390625 C 40.105469 -0.0703125 39.511719 0.0507812 39.027344 0.378906 L 38.964844 0.421875 C 34.5625 3.402344 31.585938 7.917969 30.582031 13.140625 C 29.578125 18.359375 30.664062 23.660156 33.648438 28.0625 Z M 57.054688 62.625 "/>
<path style=" stroke:none;fill-rule:nonzero;fill:rgb(0%,0%,0%);fill-opacity:1;" d="M 128.972656 100.855469 C 124.238281 95.730469 117.898438 92.488281 111.019531 91.652344 L 107.214844 86.035156 C 105.25 83.132812 101.355469 82.3125 98.390625 84.105469 L 92.945312 76.0625 C 92.265625 75.054688 90.890625 74.792969 89.882812 75.476562 C 88.875 76.15625 88.613281 77.527344 89.296875 78.539062 L 94.730469 86.5625 L 83.667969 94.054688 L 82.214844 91.910156 C 81.53125 90.902344 80.160156 90.640625 79.152344 91.324219 C 78.144531 92.003906 77.878906 93.375 78.5625 94.386719 L 80.023438 96.542969 C 78.726562 97.523438 77.839844 98.925781 77.53125 100.535156 C 77.199219 102.253906 77.558594 104.003906 78.542969 105.453125 L 80.742188 108.703125 C 79.035156 112.484375 78.171875 116.519531 78.171875 120.71875 C 78.171875 136.863281 91.308594 150 107.457031 150 C 123.601562 150 136.738281 136.863281 136.738281 120.71875 C 136.738281 113.332031 133.980469 106.277344 128.972656 100.855469 Z M 107.457031 145.589844 C 93.742188 145.589844 82.582031 134.433594 82.582031 120.71875 C 82.582031 116.773438 83.476562 113.003906 85.246094 109.507812 C 85.605469 108.796875 85.550781 107.941406 85.105469 107.277344 L 82.195312 102.980469 C 81.527344 102 81.785156 100.65625 82.769531 99.992188 L 100.574219 87.933594 C 101.558594 87.265625 102.898438 87.523438 103.566406 88.507812 L 107.945312 94.976562 C 108.320312 95.527344 108.921875 95.878906 109.585938 95.9375 C 115.769531 96.460938 121.503906 99.269531 125.734375 103.851562 C 129.984375 108.453125 132.328125 114.445312 132.328125 120.71875 C 132.328125 134.433594 121.171875 145.589844 107.457031 145.589844 Z M 107.457031 145.589844 "/>
<path style=" stroke:none;fill-rule:nonzero;fill:rgb(0%,0%,0%);fill-opacity:1;" d="M 107.457031 103.195312 C 97.792969 103.195312 89.933594 111.054688 89.933594 120.71875 C 89.933594 130.378906 97.792969 138.238281 107.457031 138.238281 C 117.117188 138.238281 124.976562 130.378906 124.976562 120.71875 C 124.976562 111.054688 117.117188 103.195312 107.457031 103.195312 Z M 107.457031 133.828125 C 100.226562 133.828125 94.34375 127.945312 94.34375 120.71875 C 94.34375 113.488281 100.226562 107.605469 107.457031 107.605469 C 114.683594 107.605469 120.566406 113.488281 120.566406 120.71875 C 120.566406 127.945312 114.683594 133.828125 107.457031 133.828125 Z M 107.457031 133.828125 "/>
<path style=" stroke:none;fill-rule:nonzero;fill:rgb(0%,0%,0%);fill-opacity:1;" d="M 72.644531 68.996094 L 72.644531 70.390625 C 72.644531 71.609375 73.632812 72.59375 74.851562 72.59375 C 76.070312 72.59375 77.054688 71.609375 77.054688 70.390625 L 77.054688 68.996094 C 77.054688 67.777344 76.070312 66.789062 74.851562 66.789062 C 73.632812 66.789062 72.644531 67.777344 72.644531 68.996094 Z M 72.644531 68.996094 "/>
</g>
</svg>
