<?xml version="1.0" encoding="UTF-8"?>
<svg xmlns="http://www.w3.org/2000/svg" xmlns:xlink="http://www.w3.org/1999/xlink" width="150pt" height="150pt" viewBox="0 0 150 150" version="1.1">
<g id="surface1">
<path style=" stroke:none;fill-rule:nonzero;fill:rgb(0%,0%,0%);fill-opacity:1;" d="M 128.339844 33.636719 C 131.535156 33.636719 134.542969 32.390625 136.800781 30.128906 C 141.46875 25.464844 141.46875 17.871094 136.800781 13.203125 C 134.542969 10.941406 131.535156 9.695312 128.339844 9.695312 C 125.140625 9.695312 122.136719 10.941406 119.875 13.203125 C 115.207031 17.871094 115.207031 25.464844 119.875 30.128906 C 122.136719 32.390625 125.140625 33.636719 128.339844 33.636719 Z M 123.089844 16.417969 C 124.492188 15.015625 126.355469 14.242188 128.339844 14.242188 C 130.320312 14.242188 132.1875 15.015625 133.589844 16.417969 C 136.484375 19.3125 136.484375 24.023438 133.589844 26.917969 C 132.1875 28.320312 130.320312 29.089844 128.339844 29.089844 C 126.355469 29.089844 124.492188 28.320312 123.089844 26.917969 C 120.195312 24.023438 120.195312 19.3125 123.089844 16.417969 Z M 123.089844 16.417969 "/>
<path style=" stroke:none;fill-rule:nonzero;fill:rgb(0%,0%,0%);fill-opacity:1;" d="M 104.867188 75.78125 L 104.972656 75.886719 C 105.859375 76.773438 107.039062 77.261719 108.296875 77.261719 C 109.550781 77.261719 110.730469 76.773438 111.617188 75.886719 L 115.046875 72.457031 C 115.933594 71.570312 116.421875 70.390625 116.421875 69.136719 C 116.421875 67.882812 115.933594 66.703125 115.046875 65.816406 L 104.652344 55.421875 L 118.898438 41.175781 C 121.804688 42.585938 125.015625 43.332031 128.339844 43.332031 C 134.125 43.332031 139.566406 41.078125 143.660156 36.988281 C 152.105469 28.539062 152.105469 14.792969 143.660156 6.347656 C 139.566406 2.253906 134.125 0 128.339844 0 C 122.550781 0 117.109375 2.253906 113.019531 6.347656 C 106.332031 13.03125 104.945312 23.027344 108.835938 31.097656 L 105.210938 34.722656 C 104.324219 35.609375 104.324219 37.050781 105.210938 37.9375 C 105.65625 38.382812 106.238281 38.601562 106.820312 38.601562 C 107.398438 38.601562 107.980469 38.382812 108.425781 37.9375 L 111.308594 35.054688 C 111.835938 35.722656 112.402344 36.371094 113.019531 36.988281 C 113.632812 37.601562 114.277344 38.167969 114.949219 38.699219 L 101.4375 52.210938 L 97.796875 48.566406 L 102.195312 44.167969 C 103.082031 43.28125 103.082031 41.839844 102.195312 40.953125 C 101.308594 40.066406 99.867188 40.066406 98.980469 40.953125 L 94.582031 45.351562 L 84.1875 34.960938 C 82.359375 33.128906 79.378906 33.128906 77.546875 34.960938 L 74.117188 38.390625 C 73.230469 39.277344 72.742188 40.457031 72.742188 41.710938 C 72.742188 42.964844 73.230469 44.144531 74.117188 45.03125 L 74.226562 45.140625 L 27.335938 92.027344 C 24.5625 94.804688 24.5625 99.320312 27.335938 102.097656 L 29.160156 103.917969 L 25.621094 107.453125 C 23.792969 109.285156 23.792969 112.265625 25.625 114.097656 L 29.160156 117.632812 L 0.671875 146.121094 C -0.21875 147.007812 -0.21875 148.445312 0.671875 149.335938 C 1.113281 149.777344 1.695312 150 2.277344 150 C 2.859375 150 3.441406 149.777344 3.882812 149.335938 L 32.371094 120.847656 L 35.90625 124.382812 C 36.796875 125.269531 37.976562 125.757812 39.230469 125.757812 C 40.484375 125.757812 41.664062 125.269531 42.550781 124.382812 L 46.085938 120.847656 L 47.90625 122.667969 C 49.253906 124.011719 51.042969 124.753906 52.945312 124.753906 C 54.84375 124.753906 56.632812 124.011719 57.980469 122.667969 Z M 116.230469 9.558594 C 119.464844 6.328125 123.765625 4.546875 128.339844 4.546875 C 132.910156 4.546875 137.210938 6.328125 140.445312 9.558594 C 147.121094 16.234375 147.121094 27.097656 140.445312 33.773438 C 137.210938 37.007812 132.910156 38.789062 128.339844 38.789062 C 123.765625 38.789062 119.464844 37.007812 116.230469 33.773438 C 109.554688 27.097656 109.554688 16.234375 116.230469 9.558594 Z M 77.332031 41.601562 L 80.761719 38.175781 C 80.789062 38.144531 80.828125 38.128906 80.867188 38.128906 C 80.90625 38.128906 80.945312 38.144531 80.976562 38.175781 L 111.832031 69.03125 C 111.84375 69.039062 111.875 69.074219 111.875 69.136719 C 111.875 69.199219 111.839844 69.234375 111.832031 69.242188 L 108.402344 72.671875 C 108.390625 72.683594 108.359375 72.714844 108.296875 72.714844 C 108.234375 72.714844 108.199219 72.683594 108.1875 72.671875 L 77.332031 41.816406 C 77.320312 41.804688 77.289062 41.773438 77.289062 41.710938 C 77.289062 41.648438 77.320312 41.613281 77.332031 41.601562 Z M 39.335938 121.167969 C 39.324219 121.179688 39.292969 121.210938 39.230469 121.210938 C 39.167969 121.210938 39.132812 121.179688 39.121094 121.167969 L 28.835938 110.882812 C 28.777344 110.824219 28.777344 110.726562 28.835938 110.667969 L 32.371094 107.132812 L 42.871094 117.632812 Z M 54.765625 119.453125 C 54.277344 119.941406 53.632812 120.207031 52.945312 120.207031 C 52.253906 120.207031 51.609375 119.941406 51.121094 119.453125 L 30.550781 98.882812 C 29.546875 97.878906 29.546875 96.246094 30.550781 95.242188 L 36.300781 89.492188 L 38.125 91.316406 C 38.570312 91.757812 39.152344 91.980469 39.734375 91.980469 C 40.3125 91.980469 40.894531 91.757812 41.339844 91.316406 C 42.226562 90.425781 42.226562 88.988281 41.339844 88.101562 L 39.515625 86.277344 L 43.15625 82.636719 L 46.691406 86.171875 C 47.136719 86.617188 47.714844 86.835938 48.296875 86.835938 C 48.878906 86.835938 49.460938 86.617188 49.90625 86.171875 C 50.792969 85.285156 50.792969 83.84375 49.90625 82.957031 L 46.371094 79.421875 L 50.011719 75.777344 L 51.832031 77.601562 C 52.277344 78.042969 52.859375 78.265625 53.441406 78.265625 C 54.023438 78.265625 54.605469 78.042969 55.046875 77.601562 C 55.9375 76.714844 55.9375 75.273438 55.046875 74.386719 L 53.226562 72.566406 L 56.871094 68.921875 L 63.140625 75.195312 C 63.585938 75.640625 64.167969 75.859375 64.75 75.859375 C 65.328125 75.859375 65.910156 75.640625 66.355469 75.195312 C 67.242188 74.308594 67.242188 72.867188 66.355469 71.980469 L 60.082031 65.707031 L 63.726562 62.066406 L 67.261719 65.601562 C 67.707031 66.046875 68.285156 66.265625 68.867188 66.265625 C 69.449219 66.265625 70.03125 66.046875 70.476562 65.601562 C 71.363281 64.714844 71.363281 63.273438 70.476562 62.386719 L 66.941406 58.851562 L 70.582031 55.210938 L 72.402344 57.03125 C 72.847656 57.476562 73.429688 57.695312 74.011719 57.695312 C 74.59375 57.695312 75.175781 57.476562 75.617188 57.03125 C 76.503906 56.144531 76.503906 54.703125 75.617188 53.816406 L 73.796875 51.996094 L 77.4375 48.351562 L 101.652344 72.566406 L 84.296875 89.921875 L 72.582031 78.207031 C 71.695312 77.320312 70.253906 77.320312 69.367188 78.207031 C 68.480469 79.09375 68.480469 80.53125 69.367188 81.421875 L 81.082031 93.136719 Z M 54.765625 119.453125 "/>
<path style=" stroke:none;fill-rule:nonzero;fill:rgb(0%,0%,0%);fill-opacity:1;" d="M 111.519531 94.394531 C 111.519531 98.320312 114.714844 101.515625 118.640625 101.515625 C 122.566406 101.515625 125.761719 98.320312 125.761719 94.394531 C 125.761719 90.46875 122.566406 87.273438 118.640625 87.273438 C 114.714844 87.273438 111.519531 90.46875 111.519531 94.394531 Z M 121.21875 94.394531 C 121.21875 95.8125 120.0625 96.96875 118.640625 96.96875 C 117.222656 96.96875 116.066406 95.8125 116.066406 94.394531 C 116.066406 92.972656 117.222656 91.816406 118.640625 91.816406 C 120.0625 91.816406 121.21875 92.972656 121.21875 94.394531 Z M 121.21875 94.394531 "/>
<path style=" stroke:none;fill-rule:nonzero;fill:rgb(0%,0%,0%);fill-opacity:1;" d="M 138.035156 96.96875 C 134.109375 96.96875 130.914062 100.164062 130.914062 104.089844 C 130.914062 108.019531 134.109375 111.210938 138.035156 111.210938 C 141.960938 111.210938 145.15625 108.019531 145.15625 104.089844 C 145.15625 100.164062 141.960938 96.96875 138.035156 96.96875 Z M 138.035156 106.667969 C 136.617188 106.667969 135.460938 105.511719 135.460938 104.089844 C 135.460938 102.671875 136.617188 101.515625 138.035156 101.515625 C 139.457031 101.515625 140.609375 102.671875 140.609375 104.089844 C 140.609375 105.511719 139.457031 106.667969 138.035156 106.667969 Z M 138.035156 106.667969 "/>
<path style=" stroke:none;fill-rule:nonzero;fill:rgb(0%,0%,0%);fill-opacity:1;" d="M 106.367188 104.089844 C 106.367188 100.164062 103.175781 96.96875 99.246094 96.96875 C 95.320312 96.96875 92.125 100.164062 92.125 104.089844 C 92.125 108.019531 95.320312 111.210938 99.246094 111.210938 C 103.175781 111.210938 106.367188 108.019531 106.367188 104.089844 Z M 99.246094 106.667969 C 97.828125 106.667969 96.671875 105.511719 96.671875 104.089844 C 96.671875 102.671875 97.828125 101.515625 99.246094 101.515625 C 100.667969 101.515625 101.824219 102.671875 101.824219 104.089844 C 101.824219 105.511719 100.667969 106.667969 99.246094 106.667969 Z M 99.246094 106.667969 "/>
<path style=" stroke:none;fill-rule:nonzero;fill:rgb(0%,0%,0%);fill-opacity:1;" d="M 131.671875 120.574219 C 129.96875 118.457031 128.542969 116.039062 127.433594 113.394531 L 127.203125 112.847656 C 125.605469 109.03125 122.335938 106.667969 118.667969 106.667969 C 118.652344 106.667969 118.636719 106.667969 118.621094 106.667969 C 114.925781 106.6875 111.648438 109.097656 110.078125 112.960938 C 110.078125 112.960938 110.078125 112.960938 110.074219 112.960938 L 109.898438 113.402344 C 108.664062 116.433594 107.023438 119.160156 105.027344 121.503906 L 103.507812 123.289062 C 102.164062 124.867188 101.574219 127.097656 101.921875 129.265625 C 102.253906 131.3125 103.375 133.050781 104.996094 134.03125 C 108.132812 135.929688 111.875 135.929688 115.011719 134.03125 L 115.914062 133.484375 C 117.601562 132.464844 119.535156 132.464844 121.222656 133.484375 L 122.128906 134.03125 C 123.695312 134.980469 125.414062 135.457031 127.132812 135.457031 C 128.855469 135.457031 130.574219 134.980469 132.140625 134.03125 L 132.285156 133.945312 C 133.875 132.984375 134.988281 131.289062 135.339844 129.285156 C 135.722656 127.128906 135.195312 124.964844 133.898438 123.347656 Z M 130.863281 128.492188 C 130.742188 129.195312 130.394531 129.777344 129.933594 130.054688 L 129.789062 130.144531 C 128.101562 131.164062 126.167969 131.164062 124.480469 130.144531 L 123.574219 129.597656 C 120.441406 127.699219 116.695312 127.699219 113.5625 129.597656 L 112.65625 130.144531 C 110.96875 131.164062 109.035156 131.164062 107.347656 130.144531 C 106.878906 129.859375 106.527344 129.257812 106.410156 128.535156 C 106.273438 127.683594 106.484375 126.800781 106.964844 126.238281 L 108.488281 124.453125 C 110.796875 121.738281 112.6875 118.597656 114.105469 115.113281 L 114.285156 114.675781 C 115.164062 112.515625 116.792969 111.222656 118.644531 111.210938 L 118.664062 111.210938 C 120.496094 111.210938 122.121094 112.480469 123.011719 114.605469 L 123.242188 115.152344 C 124.515625 118.1875 126.160156 120.972656 128.125 123.421875 L 130.351562 126.195312 C 130.824219 126.78125 131.015625 127.640625 130.863281 128.492188 Z M 130.863281 128.492188 "/>
</g>
</svg>
